<?xml version="1.0" encoding="utf-8"?>
<!-- Generator: Adobe Illustrator 16.0.0, SVG Export Plug-In . SVG Version: 6.00 Build 0)  -->
<!DOCTYPE svg PUBLIC "-//W3C//DTD SVG 1.1//EN" "http://www.w3.org/Graphics/SVG/1.1/DTD/svg11.dtd">
<svg version="1.1" xmlns="http://www.w3.org/2000/svg" xmlns:xlink="http://www.w3.org/1999/xlink" x="0px" y="0px" width="1196px"
	 height="622.055px" viewBox="0 0 1196 622.055" enable-background="new 0 0 1196 622.055" xml:space="preserve">
<g id="BACKGROUND">
	<rect x="-0.36" fill="#1F2D47" width="1195.306" height="500"/>
</g>
<g id="OBJECTS_1_">
	<g id="RIGHT">
		<path fill="#89C7C6" d="M1194.946,112.245c0,0-329.146-27.807-651.508,130.803c-48.674,50.768-53.403,261.797,651.508,242.572
			C1194.946,338.187,1194.946,112.245,1194.946,112.245z"/>
		<g id="BLUE_BLDG_2_">
			<ellipse opacity="0.2" fill="#1F2D47" cx="1017.895" cy="208.989" rx="107.753" ry="6.131"/>
			<polygon fill="#472C3A" points="1106.01,56.233 1072.598,38.462 1039.186,56.233 1039.186,209.512 1106.01,209.512 			"/>
			<polygon fill="#518C88" points="969.974,38.462 1072.598,38.462 1039.186,56.233 1039.186,209.512 936.561,209.512 
				936.561,56.233 			"/>
			<polygon fill="#FFFFFF" points="1072.598,38.462 1039.186,56.233 936.561,56.233 969.974,38.462 			"/>
			<g id="WINDOW_47_">
				<rect x="1000.29" y="68.61" fill="#EAB41C" width="16.109" height="9.521"/>
				<polygon fill="#5FA3A0" points="1016.399,69.517 1003.273,69.517 1003.273,78.13 1000.29,78.13 1000.29,68.61 1016.399,68.61 
									"/>
			</g>
			<g id="WINDOW_45_">
				<rect x="958.151" y="68.61" fill="#EAB41C" width="16.109" height="9.521"/>
				<polygon fill="#5FA3A0" points="974.261,69.517 961.135,69.517 961.135,78.13 958.151,78.13 958.151,68.61 974.261,68.61 				
					"/>
			</g>
			<g id="WINDOW_41_">
				<rect x="999.805" y="89.676" fill="#030321" width="14.209" height="8.765"/>
				<polygon fill="#5FA3A0" points="1014.014,90.114 1000.887,90.114 1000.887,98.441 997.903,98.441 997.903,89.238 
					1014.014,89.238 				"/>
			</g>
			<g id="WINDOW_40_">
				<rect x="959.233" y="89.676" fill="#030321" width="15.027" height="8.765"/>
				<polygon fill="#5FA3A0" points="974.261,90.114 961.135,90.114 961.135,98.441 958.151,98.441 958.151,89.238 974.261,89.238 
									"/>
			</g>
			<g id="WINDOW_33_">
				<rect x="1064.542" y="69.517" fill="#030321" width="14.917" height="8.613"/>
				<polygon fill="#9BD6E7" points="1064.542,69.517 1077.669,69.517 1077.669,78.13 1080.653,78.13 1080.653,68.61 1064.542,68.61 
									"/>
			</g>
			<g id="WINDOW_26_">
				<rect x="1064.542" y="90.114" fill="#EAB41C" width="14.917" height="8.327"/>
				<polygon fill="#436D77" points="1064.542,90.114 1077.669,90.114 1077.669,98.441 1080.653,98.441 1080.653,89.238 
					1064.542,89.238 				"/>
			</g>
			<g id="WINDOW_25_">
				<rect x="1064.542" y="131.958" fill="#EAB41C" width="14.917" height="7.885"/>
				<polygon fill="#436D77" points="1064.542,131.958 1077.669,131.958 1077.669,139.843 1080.653,139.843 1080.653,131.128 
					1064.542,131.128 				"/>
			</g>
			<g id="WINDOW_24_">
				<rect x="1064.542" y="152.778" fill="#EAB41C" width="14.917" height="7.693"/>
				<polygon fill="#436D77" points="1064.542,152.778 1077.669,152.778 1077.669,160.471 1080.653,160.471 1080.653,151.967 
					1064.542,151.967 				"/>
			</g>
			<rect x="936.561" y="203.606" fill="#472C3A" width="169.449" height="6.653"/>
		</g>
		<g id="BROWN_BLDG_3_">
			<path opacity="0.2" fill="#1F2D47" d="M936.729,310.617c0,4.376-70.199,7.924-156.787,7.924
				c-86.587,0-156.787-3.548-156.787-7.924s70.197-7.922,156.787-7.922C866.529,302.695,936.729,306.241,936.729,310.617z"/>
			<polygon fill="#472C3A" points="813.223,229.401 779.593,211.745 746.398,229.401 746.398,311.001 813.223,311.001 			"/>
			<polygon fill="#472C3A" points="915.622,274.399 881.991,254.789 848.796,272.446 848.796,311.001 915.622,311.001 			"/>
			<polygon fill="#9C5941" points="691.991,220.515 779.811,211.629 746.398,229.401 746.398,311.001 643.773,311.001 
				643.773,229.401 			"/>
			<polygon fill="#FFFFFF" points="779.811,211.629 746.398,229.401 643.773,229.401 677.186,211.629 			"/>
			<g id="WINDOW_71_">
				<rect x="709.891" y="241.777" fill="#030321" width="16.108" height="8.186"/>
				<polygon fill="#75122E" points="725.999,242.558 712.873,242.558 712.873,249.963 709.891,249.963 709.891,241.777 
					725.999,241.777 				"/>
			</g>
			<g id="WINDOW_70_">
				<rect x="683.936" y="241.777" fill="#EAB41C" width="16.11" height="8.186"/>
				<polygon fill="#75122E" points="700.046,242.558 686.919,242.558 686.919,249.963 683.936,249.963 683.936,241.777 
					700.046,241.777 				"/>
			</g>
			<g id="WINDOW_69_">
				<rect x="658.205" y="241.777" fill="#EAB41C" width="16.109" height="8.186"/>
				<polygon fill="#75122E" points="674.314,242.558 661.188,242.558 661.188,249.963 658.205,249.963 658.205,241.777 
					674.314,241.777 				"/>
			</g>
			<g id="WINDOW_50_">
				<rect x="771.755" y="242.516" fill="#EAB41C" width="14.917" height="7.499"/>
				<polygon fill="#9C5941" points="771.755,242.516 784.883,242.516 784.883,250.015 787.865,250.015 787.865,241.726 
					771.755,241.726 				"/>
			</g>
			<rect x="713.582" y="204.7" fill="#436D77" width="11.338" height="16.396"/>
			<polygon fill="#75122E" points="724.92,221.097 734.488,216.071 734.488,204.7 724.92,204.7 			"/>
			<rect x="711.793" y="202.056" fill="#FFFFFF" width="24.079" height="3.491"/>
			<rect x="724.92" y="202.056" fill="#D6D6D6" width="10.952" height="3.491"/>
			<rect x="643.773" y="229.401" fill="#D6D6D6" width="102.625" height="2.484"/>
			<polygon fill="#C2C2C2" points="779.811,211.629 746.398,229.401 746.398,231.885 779.811,214.103 813.223,231.885 
				813.223,229.296 			"/>
			<rect x="683.336" y="297.566" fill="#030321" width="16.931" height="13.436"/>
			<g id="WINDOW_4_">
				<rect x="709.891" y="257.28" fill="#030321" width="16.108" height="8.186"/>
				<polygon fill="#75122E" points="725.999,258.059 712.873,258.059 712.873,265.465 709.891,265.465 709.891,257.28 
					725.999,257.28 				"/>
			</g>
			<g id="WINDOW_2_">
				<rect x="683.936" y="257.28" fill="#EAB41C" width="16.11" height="8.186"/>
				<polygon fill="#75122E" points="700.046,258.059 686.919,258.059 686.919,265.465 683.936,265.465 683.936,257.28 
					700.046,257.28 				"/>
			</g>
			<g id="WINDOW_1_">
				<rect x="658.205" y="257.28" fill="#030321" width="16.109" height="8.186"/>
				<polygon fill="#75122E" points="674.314,258.059 661.188,258.059 661.188,265.465 658.205,265.465 658.205,257.28 
					674.314,257.28 				"/>
			</g>
			<polygon fill="#FFFFFF" points="882.209,254.789 848.796,272.56 746.172,272.56 779.584,254.789 			"/>
			<rect x="746.172" y="272.56" fill="#D6D6D6" width="102.624" height="2.484"/>
			<polygon fill="#C2C2C2" points="882.209,254.789 848.796,272.56 848.796,275.044 882.209,257.263 915.622,275.044 
				915.622,272.456 			"/>
			<rect x="746.172" y="275.044" fill="#9C5941" width="102.624" height="35.957"/>
			<g id="WINDOW_5_">
				<rect x="758.517" y="282.895" fill="#EAB41C" width="16.11" height="8.186"/>
				<polygon fill="#75122E" points="774.627,283.674 761.501,283.674 761.501,291.081 758.517,291.081 758.517,282.895 
					774.627,282.895 				"/>
			</g>
			<g id="WINDOW_6_">
				<rect x="820.57" y="282.895" fill="#EAB41C" width="16.108" height="8.186"/>
				<polygon fill="#75122E" points="836.679,283.674 823.554,283.674 823.554,291.081 820.57,291.081 820.57,282.895 
					836.679,282.895 				"/>
			</g>
			<rect x="876.541" y="298.987" fill="#030321" width="15.141" height="12.015"/>
			<rect x="643.773" y="304.994" fill="#472C3A" width="218.506" height="6.008"/>
		</g>
		<g id="YELLOW_DOUBLE_BLDG">
			<path opacity="0.2" fill="#1F2D47" d="M1162.99,388.713c0,3.387-56.315,6.131-125.772,6.131
				c-69.461,0-125.774-2.744-125.774-6.131c0-3.386,56.313-6.129,125.774-6.129C1106.676,382.584,1162.99,385.328,1162.99,388.713z"
				/>
			<g id="BLDG_2_">
				<polygon fill="#472C3A" points="1048.544,332.544 1019.195,316.937 989.852,332.544 989.852,388.658 1048.544,388.658 				"/>
				<polygon fill="#E4AE42" points="957.758,318.971 1019.195,316.937 989.852,332.544 989.852,388.658 930.765,388.714 
					930.765,332.602 				"/>
				<polygon fill="#FFFFFF" points="1019.195,316.937 989.852,332.544 930.797,332.544 960.142,316.937 				"/>
				<g id="WINDOW_81_">
					<rect x="951.603" y="343.171" fill="#030321" width="16.109" height="9.626"/>
					<polygon fill="#472C3A" points="967.712,344.088 954.586,344.088 954.586,352.797 951.603,352.797 951.603,343.171 
						967.712,343.171 					"/>
				</g>
			</g>
			<g id="BLDG_1_">
				<polygon fill="#472C3A" points="1144.741,332.544 1115.396,316.937 1086.05,332.544 1086.05,388.658 1144.741,388.658 				"/>
				<polygon fill="#E4AE42" points="1057.983,316.937 1115.396,316.937 1086.05,332.544 1086.05,388.658 1026.963,388.714 
					1026.963,332.602 				"/>
				<polygon fill="#FFFFFF" points="1115.396,316.937 1086.05,332.544 1026.995,332.544 1056.341,316.937 				"/>
				<rect x="1060.431" y="313.511" fill="#E4AE42" width="9.259" height="13.391"/>
				<polygon fill="#333366" points="1069.689,326.902 1077.504,322.797 1077.504,313.511 1069.689,313.511 				"/>
				<rect x="1058.967" y="311.352" fill="#FFFFFF" width="19.667" height="2.852"/>
				<rect x="1069.689" y="311.352" fill="#D6D6D6" width="8.944" height="2.852"/>
				<g id="WINDOW_80_">
					<rect x="1047.801" y="343.171" fill="#030321" width="16.11" height="9.626"/>
					<polygon fill="#472C3A" points="1063.911,344.088 1050.784,344.088 1050.784,352.797 1047.801,352.797 1047.801,343.171 
						1063.911,343.171 					"/>
				</g>
				<g id="WINDOW_78_">
					<rect x="1047.801" y="365.068" fill="#030321" width="16.11" height="8.874"/>
					<polygon fill="#333366" points="1063.911,365.914 1050.784,365.914 1050.784,373.942 1047.801,373.942 1047.801,365.068 
						1063.911,365.068 					"/>
				</g>
				<ellipse fill="#E4AE42" cx="1118.342" cy="340.95" rx="6.96" ry="5.396"/>
				<path fill="#030321" d="M1117.052,335.656c3.227,0.472,5.669,2.658,5.669,5.294c0,2.637-2.442,4.823-5.669,5.295
					c-3.228-0.472-5.67-2.658-5.67-5.295C1111.382,338.314,1113.824,336.127,1117.052,335.656z"/>
			</g>
			<rect x="1000.903" y="350.736" fill="#9C5941" width="26.092" height="27.661"/>
			<rect x="930.765" y="384.096" fill="#472C3A" width="210.801" height="4.562"/>
		</g>
		<g id="TREE_10_">
			<path fill="#FFFFFF" d="M1108.068,183.736c9.181-0.311,30.761,4.111,33.452,19.257c2.689,15.145-21.295,18.704-31.385,18.711
				c-11.247,0.009-34.646-2.705-34.672-18.067C1075.441,188.275,1098.574,184.055,1108.068,183.736z"/>
			<path fill="#030321" d="M1129.387,202.621c-0.099-0.531-0.965-0.911-1.979-0.868c-0.998,0.052-1.73,0.522-1.632,1.053
				c0.013,0.068,1.149,6.774-5.121,10.447c-2.32,1.36-5.438,2.136-9.282,2.319v-12.931c0.533,0.034,1.125,0.06,1.768,0.06
				c2.004,0,4.453-0.231,6.69-1.078c3.939-1.492,5.937-4.367,5.937-8.548c0-0.533-0.812-0.964-1.812-0.964
				c-1.002,0-1.813,0.432-1.813,0.964c0,3.462-1.518,5.871-4.39,6.967c-2.224,0.849-4.868,0.782-6.381,0.648v-9.658
				c0-0.533-0.813-0.964-1.812-0.964c-1,0-1.813,0.431-1.813,0.964v16.354c-3.944-0.179-7.024-0.965-9.168-2.344
				c-5.818-3.748-3.384-10.703-3.356-10.774c0.188-0.523-0.454-1.028-1.437-1.129c-0.982-0.102-1.931,0.242-2.119,0.763
				c-0.121,0.321-2.793,7.908,4.11,12.362c2.851,1.838,6.877,2.858,11.97,3.052v6.27c-5.64-0.149-9.939-0.995-12.771-2.536
				c-3.701-2.014-3.649-4.584-3.649-4.631c0.029-0.531-0.759-0.974-1.756-0.99c-1-0.043-1.836,0.4-1.867,0.932
				c-0.007,0.138-0.146,3.386,4.628,6.007c3.522,1.936,8.716,2.984,15.416,3.144v18.284c0,0.533,0.813,0.964,1.813,0.964
				c0.999,0,1.812-0.431,1.812-0.964v-18.292c4.915-0.192,8.937-1.181,11.968-2.955
				C1130.676,210.252,1129.441,202.93,1129.387,202.621z"/>
		</g>
		<g id="TREE_11_">
			<path fill="#FFFFFF" d="M813.669,133.079c9.052-0.306,30.328,4.054,32.986,18.987c2.649,14.933-21,18.441-30.947,18.449
				c-11.09,0.008-34.161-2.667-34.183-17.814C781.501,137.554,804.312,133.393,813.669,133.079z"/>
			<path fill="#030321" d="M834.688,151.698c-0.094-0.523-0.95-0.899-1.949-0.856c-0.984,0.051-1.704,0.515-1.61,1.038
				c0.014,0.067,1.135,6.68-5.047,10.301c-2.29,1.341-5.364,2.106-9.149,2.286v-12.749c0.521,0.035,1.107,0.059,1.74,0.059
				c1.975,0,4.389-0.229,6.597-1.063c3.886-1.47,5.853-4.305,5.853-8.428c0-0.525-0.801-0.95-1.785-0.95
				c-0.989,0-1.791,0.425-1.791,0.95c0,3.414-1.491,5.789-4.324,6.869c-2.195,0.838-4.8,0.773-6.289,0.64v-9.523
				c0-0.524-0.803-0.95-1.791-0.95c-0.985,0-1.784,0.426-1.784,0.95v16.125c-3.894-0.178-6.93-0.951-9.041-2.312
				c-5.736-3.695-3.336-10.552-3.312-10.623c0.186-0.515-0.445-1.014-1.413-1.113c-0.97-0.1-1.904,0.238-2.094,0.752
				c-0.115,0.316-2.751,7.797,4.057,12.189c2.808,1.812,6.78,2.817,11.803,3.009v6.181c-5.562-0.147-9.803-0.98-12.596-2.5
				c-3.646-1.986-3.597-4.52-3.597-4.566c0.027-0.523-0.745-0.96-1.729-0.977c-0.988-0.042-1.813,0.396-1.844,0.919
				c-0.007,0.136-0.146,3.339,4.563,5.923c3.472,1.908,8.594,2.941,15.201,3.099v18.028c0,0.525,0.799,0.95,1.784,0.95
				c0.988,0,1.791-0.425,1.791-0.95v-18.035c4.843-0.191,8.81-1.165,11.797-2.914C835.961,159.222,834.742,152.002,834.688,151.698z
				"/>
		</g>
		<g id="TREE_12_">
			<path fill="#FFFFFF" d="M1085.528,380.833c9.043-0.306,30.301,4.049,32.956,18.97c2.646,14.92-20.981,18.427-30.919,18.434
				c-11.078,0.009-34.132-2.665-34.155-17.799C1053.385,385.305,1076.178,381.148,1085.528,380.833z"/>
			<path fill="#030321" d="M1106.53,399.436c-0.099-0.521-0.951-0.897-1.949-0.854c-0.982,0.05-1.703,0.514-1.608,1.037
				c0.013,0.067,1.133,6.675-5.044,10.291c-2.288,1.341-5.357,2.105-9.143,2.284v-12.737c0.522,0.034,1.106,0.059,1.744,0.059
				c1.968,0,4.381-0.229,6.588-1.063c3.879-1.469,5.849-4.301,5.849-8.42c0-0.524-0.801-0.95-1.786-0.95
				c-0.988,0-1.785,0.426-1.785,0.95c0,3.411-1.496,5.783-4.324,6.862c-2.192,0.837-4.798,0.771-6.285,0.64v-9.515
				c0-0.524-0.802-0.949-1.785-0.949c-0.986,0-1.784,0.425-1.784,0.949v16.11c-3.891-0.177-6.923-0.95-9.033-2.309
				c-5.733-3.693-3.334-10.544-3.31-10.614c0.188-0.515-0.444-1.013-1.411-1.111c-0.97-0.1-1.904,0.237-2.092,0.751
				c-0.116,0.317-2.75,7.791,4.051,12.178c2.806,1.811,6.776,2.815,11.795,3.007v6.176c-5.558-0.146-9.794-0.979-12.586-2.497
				c-3.645-1.985-3.596-4.517-3.593-4.562c0.027-0.523-0.745-0.96-1.729-0.976c-0.987-0.043-1.81,0.394-1.84,0.918
				c-0.008,0.136-0.146,3.336,4.556,5.919c3.472,1.906,8.588,2.938,15.191,3.095v18.012c0,0.524,0.798,0.95,1.784,0.95
				c0.983,0,1.785-0.426,1.785-0.95v-18.02c4.839-0.189,8.803-1.164,11.786-2.91C1107.8,406.953,1106.582,399.741,1106.53,399.436z"
				/>
		</g>
	</g>
	<g id="LEFT">
		<path fill="#B3E0DD" d="M543.438,243.047C351.688,164.41,1.64,183.173,1.64,183.173v361.925v21.58v9.166V625h1193.306v-49.156
			v-30.746c0-15.876,0-39.147,0-72.562C852.801,444.404,735.189,321.684,543.438,243.047z"/>
		<g id="TREES">
			<g id="TREE_4_">
				<path fill="#FFFFFF" d="M520.629,467.62c10.425-0.352,34.933,4.669,37.988,21.868c3.056,17.198-24.185,21.24-35.639,21.249
					c-12.771,0.01-39.345-3.072-39.371-20.518C483.579,472.775,509.85,467.982,520.629,467.62z"/>
				<path fill="#030321" d="M544.838,489.065c-0.111-0.603-1.095-1.035-2.247-0.985c-1.132,0.058-1.959,0.592-1.853,1.194
					c0.014,0.077,1.306,7.694-5.813,11.863c-2.638,1.546-6.179,2.426-10.542,2.634v-14.684c0.604,0.039,1.276,0.068,2.008,0.068
					c2.275,0,5.053-0.264,7.597-1.225c4.474-1.694,6.741-4.96,6.741-9.707c0-0.604-0.923-1.094-2.058-1.094
					c-1.138,0-2.059,0.489-2.059,1.094c0,3.933-1.723,6.667-4.983,7.911c-2.525,0.965-5.53,0.89-7.246,0.737v-10.968
					c0-0.605-0.921-1.095-2.057-1.095s-2.06,0.489-2.06,1.095v18.571c-4.481-0.205-7.978-1.097-10.411-2.663
					c-6.605-4.255-3.842-12.153-3.813-12.233c0.215-0.594-0.514-1.169-1.629-1.282c-1.116-0.115-2.194,0.273-2.41,0.866
					c-0.135,0.364-3.17,8.979,4.669,14.038c3.236,2.088,7.81,3.245,13.594,3.467v7.118c-6.403-0.17-11.286-1.13-14.503-2.88
					c-4.202-2.287-4.146-5.205-4.144-5.258c0.032-0.604-0.859-1.105-1.992-1.125c-1.139-0.048-2.086,0.455-2.122,1.059
					c-0.01,0.156-0.166,3.846,5.255,6.822c4,2.198,9.897,3.389,17.506,3.568v20.763c0,0.605,0.924,1.096,2.06,1.096
					s2.057-0.49,2.057-1.096v-20.771c5.582-0.22,10.148-1.342,13.589-3.355C546.303,497.73,544.9,489.416,544.838,489.065z"/>
			</g>
			<g id="TREE_5_">
				<path fill="#518C88" d="M487.357,263.591c10.424-0.352,34.931,4.669,37.985,21.867c3.056,17.198-24.183,21.239-35.637,21.248
					c-12.771,0.011-39.346-3.071-39.372-20.518C450.306,268.746,476.578,263.953,487.357,263.591z"/>
				<path fill="#030321" d="M511.564,285.036c-0.11-0.603-1.093-1.035-2.247-0.986c-1.131,0.059-1.96,0.594-1.852,1.195
					c0.015,0.077,1.306,7.693-5.813,11.863c-2.638,1.545-6.179,2.427-10.54,2.634v-14.684c0.604,0.039,1.275,0.067,2.007,0.067
					c2.273,0,5.054-0.263,7.598-1.225c4.472-1.693,6.739-4.958,6.739-9.706c0-0.604-0.921-1.095-2.058-1.095
					c-1.136,0-2.058,0.49-2.058,1.095c0,3.932-1.723,6.667-4.982,7.912c-2.527,0.964-5.53,0.888-7.246,0.735v-10.967
					c0-0.605-0.923-1.095-2.059-1.095s-2.058,0.489-2.058,1.095v18.57c-4.482-0.203-7.979-1.095-10.411-2.662
					c-6.606-4.256-3.842-12.152-3.813-12.234c0.213-0.593-0.515-1.167-1.63-1.281c-1.117-0.115-2.193,0.273-2.411,0.866
					c-0.135,0.365-3.17,8.98,4.671,14.038c3.235,2.087,7.809,3.245,13.594,3.466v7.119c-6.405-0.169-11.288-1.129-14.504-2.88
					c-4.203-2.286-4.147-5.204-4.145-5.258c0.033-0.603-0.858-1.106-1.992-1.125c-1.137-0.049-2.086,0.455-2.123,1.059
					c-0.008,0.156-0.164,3.846,5.257,6.822c4.001,2.198,9.897,3.388,17.507,3.569v20.763c0,0.604,0.922,1.094,2.058,1.094
					s2.059-0.489,2.059-1.094v-20.771c5.58-0.22,10.146-1.342,13.587-3.355C513.03,293.701,511.627,285.386,511.564,285.036z"/>
			</g>
			<g id="TREE_6_">
				<path fill="#FFFFFF" d="M179.399,159.65c9.18-0.31,30.761,4.112,33.452,19.257c2.691,15.146-21.297,18.704-31.384,18.712
					c-11.247,0.009-34.648-2.706-34.671-18.068C146.771,164.189,169.907,159.969,179.399,159.65z"/>
				<path fill="#030321" d="M200.717,178.535c-0.098-0.53-0.963-0.911-1.979-0.868c-0.996,0.052-1.726,0.522-1.631,1.052
					c0.012,0.068,1.149,6.775-5.12,10.447c-2.322,1.361-5.441,2.137-9.282,2.319v-12.931c0.531,0.035,1.124,0.06,1.768,0.06
					c2.002,0,4.451-0.231,6.69-1.079c3.938-1.491,5.936-4.367,5.936-8.548c0-0.532-0.812-0.964-1.813-0.964
					c-1,0-1.812,0.432-1.812,0.964c0,3.463-1.517,5.871-4.388,6.967c-2.226,0.849-4.871,0.782-6.381,0.648v-9.658
					c0-0.533-0.813-0.964-1.812-0.964c-1.001,0-1.813,0.431-1.813,0.964V183.3c-3.947-0.18-7.026-0.965-9.168-2.345
					c-5.818-3.748-3.383-10.703-3.357-10.774c0.188-0.522-0.454-1.028-1.435-1.128c-0.983-0.101-1.934,0.241-2.123,0.763
					c-0.119,0.321-2.792,7.908,4.112,12.362c2.849,1.838,6.877,2.858,11.972,3.052v6.27c-5.641-0.149-9.94-0.995-12.773-2.536
					c-3.7-2.014-3.65-4.584-3.648-4.631c0.029-0.53-0.756-0.974-1.753-0.99c-1.003-0.042-1.838,0.4-1.871,0.932
					c-0.009,0.138-0.146,3.386,4.628,6.007c3.523,1.936,8.716,2.984,15.417,3.143v18.284c0,0.532,0.812,0.964,1.813,0.964
					c1,0,1.812-0.432,1.812-0.964v-18.292c4.915-0.193,8.936-1.181,11.966-2.955C202.007,186.166,200.772,178.844,200.717,178.535z"
					/>
			</g>
			<g id="TREE_7_">
				<path fill="#518C88" d="M1052.792,518.125c11.761-0.397,39.402,5.267,42.851,24.666c3.443,19.401-27.28,23.961-40.204,23.971
					c-14.403,0.011-44.377-3.467-44.41-23.145C1010.997,523.939,1040.633,518.534,1052.792,518.125z"/>
				<path fill="#030321" d="M1080.1,542.315c-0.126-0.68-1.235-1.166-2.537-1.11c-1.275,0.065-2.209,0.668-2.087,1.347
					c0.014,0.087,1.471,8.679-6.561,13.382c-2.975,1.743-6.967,2.737-11.888,2.971V542.34c0.68,0.045,1.438,0.078,2.268,0.078
					c2.56,0,5.698-0.297,8.566-1.383c5.044-1.91,7.603-5.593,7.603-10.948c0-0.684-1.04-1.235-2.32-1.235
					c-1.283,0-2.323,0.552-2.323,1.235c0,4.436-1.942,7.52-5.621,8.924c-2.848,1.089-6.239,1.003-8.172,0.831V527.47
					c0-0.682-1.04-1.234-2.323-1.234c-1.279,0-2.321,0.553-2.321,1.234v20.948c-5.054-0.23-8.999-1.235-11.743-3.003
					c-7.454-4.8-4.336-13.709-4.3-13.8c0.241-0.669-0.581-1.318-1.84-1.447s-2.476,0.311-2.718,0.979
					c-0.151,0.412-3.575,10.129,5.268,15.836c3.649,2.354,8.808,3.66,15.333,3.909v8.031c-7.225-0.193-12.732-1.275-16.36-3.25
					c-4.739-2.579-4.675-5.87-4.674-5.932c0.037-0.68-0.97-1.247-2.249-1.269c-1.281-0.055-2.351,0.514-2.392,1.195
					c-0.011,0.176-0.188,4.338,5.926,7.694c4.514,2.479,11.165,3.821,19.749,4.026v23.421c0,0.682,1.042,1.235,2.321,1.235
					c1.283,0,2.323-0.554,2.323-1.235v-23.431c6.294-0.248,11.448-1.514,15.327-3.786
					C1081.75,552.089,1080.167,542.711,1080.1,542.315z"/>
			</g>
			<g id="TREE_8_">
				<path fill="#518C88" d="M186.487,443.445c10.424-0.352,34.932,4.669,37.987,21.867c3.056,17.198-24.184,21.239-35.639,21.249
					c-12.771,0.01-39.344-3.072-39.371-20.518C149.437,448.599,175.708,443.806,186.487,443.445z"/>
				<path fill="#030321" d="M210.695,464.889c-0.111-0.602-1.093-1.035-2.248-0.985c-1.131,0.058-1.959,0.592-1.852,1.194
					c0.015,0.077,1.306,7.693-5.813,11.863c-2.637,1.546-6.179,2.427-10.54,2.634v-14.684c0.603,0.039,1.275,0.068,2.007,0.068
					c2.273,0,5.053-0.264,7.597-1.225c4.472-1.694,6.74-4.959,6.74-9.707c0-0.604-0.921-1.095-2.058-1.095
					c-1.136,0-2.057,0.49-2.057,1.095c0,3.933-1.723,6.668-4.983,7.912c-2.527,0.965-5.53,0.889-7.246,0.736v-10.968
					c0-0.605-0.922-1.095-2.058-1.095c-1.136,0-2.058,0.489-2.058,1.095V470.3c-4.482-0.204-7.978-1.096-10.412-2.662
					c-6.606-4.256-3.841-12.153-3.812-12.234c0.214-0.594-0.515-1.168-1.629-1.282c-1.117-0.115-2.194,0.273-2.411,0.866
					c-0.134,0.365-3.169,8.98,4.67,14.038c3.235,2.087,7.809,3.246,13.594,3.467v7.118c-6.405-0.169-11.288-1.129-14.504-2.88
					c-4.202-2.286-4.146-5.204-4.144-5.258c0.033-0.603-0.859-1.105-1.992-1.125c-1.138-0.048-2.086,0.455-2.123,1.059
					c-0.009,0.156-0.166,3.846,5.255,6.822c4.001,2.198,9.897,3.389,17.507,3.569v20.763c0,0.604,0.922,1.095,2.058,1.095
					c1.136,0,2.058-0.49,2.058-1.095V481.79c5.58-0.22,10.147-1.342,13.587-3.355C212.161,473.555,210.758,465.24,210.695,464.889z"
					/>
			</g>
			<g id="TREE_9_">
				<path fill="#FFFFFF" d="M828.492,356.281c10.425-0.353,34.929,4.668,37.987,21.866c3.054,17.2-24.184,21.241-35.641,21.25
					c-12.771,0.01-39.343-3.073-39.37-20.518C791.44,361.434,817.713,356.642,828.492,356.281z"/>
				<path fill="#030321" d="M852.7,377.725c-0.112-0.603-1.096-1.035-2.247-0.985c-1.133,0.059-1.963,0.593-1.852,1.194
					c0.014,0.078,1.305,7.694-5.816,11.864c-2.636,1.544-6.176,2.425-10.54,2.633v-14.684c0.604,0.04,1.277,0.068,2.011,0.068
					c2.272,0,5.051-0.263,7.595-1.225c4.473-1.693,6.74-4.959,6.74-9.707c0-0.605-0.92-1.095-2.057-1.095
					c-1.138,0-2.06,0.489-2.06,1.095c0,3.933-1.722,6.667-4.982,7.911c-2.526,0.965-5.53,0.89-7.247,0.736v-10.967
					c0-0.604-0.922-1.095-2.057-1.095s-2.059,0.49-2.059,1.095v18.571c-4.481-0.205-7.978-1.097-10.41-2.663
					c-6.607-4.256-3.844-12.153-3.814-12.233c0.215-0.595-0.514-1.168-1.628-1.282c-1.116-0.115-2.195,0.274-2.41,0.867
					c-0.135,0.363-3.169,8.979,4.67,14.037c3.235,2.088,7.809,3.245,13.593,3.466v7.119c-6.404-0.17-11.287-1.129-14.504-2.879
					c-4.201-2.288-4.146-5.206-4.144-5.26c0.032-0.603-0.859-1.104-1.993-1.123c-1.138-0.049-2.085,0.455-2.121,1.058
					c-0.009,0.157-0.168,3.846,5.254,6.822c4.002,2.197,9.898,3.388,17.508,3.568v20.763c0,0.605,0.924,1.096,2.059,1.096
					s2.057-0.49,2.057-1.096v-20.771c5.581-0.219,10.148-1.341,13.589-3.355C854.165,386.39,852.761,378.076,852.7,377.725z"/>
			</g>
		</g>
		<g id="BLUE_BLDG_1_">
			<ellipse fill="#C2C2C2" cx="861.123" cy="533.604" rx="74.221" ry="6.594"/>
			<polygon fill="#472C3A" points="920.346,477.436 891,461.828 861.655,477.436 861.655,533.548 920.346,533.548 			"/>
			<polygon fill="#518C88" points="829.562,463.862 891,461.828 861.655,477.436 861.655,533.548 802.567,533.606 802.567,477.493 
							"/>
			<polygon fill="#FFFFFF" points="891,461.828 861.655,477.436 802.599,477.436 831.945,461.828 			"/>
			<g id="WINDOW_77_">
				<rect x="823.405" y="488.062" fill="#EAB41C" width="16.109" height="9.626"/>
				<polygon fill="#472C3A" points="839.515,488.979 826.388,488.979 826.388,497.688 823.405,497.688 823.405,488.062 
					839.515,488.062 				"/>
			</g>
			<g id="WINDOW_76_">
				<rect x="823.405" y="509.959" fill="#EAB41C" width="16.109" height="8.164"/>
				<polygon fill="#472C3A" points="839.515,510.737 826.388,510.737 826.388,518.124 823.405,518.124 823.405,509.959 
					839.515,509.959 				"/>
			</g>
			<path fill="#518C88" d="M886.985,485.84c0,2.98,3.118,5.395,6.964,5.395s6.958-2.414,6.958-5.395
				c0-2.979-3.112-5.394-6.958-5.394S886.985,482.862,886.985,485.84z"/>
			<path fill="#030321" d="M892.656,480.547c3.228,0.472,5.669,2.658,5.669,5.293c0,2.637-2.441,4.824-5.669,5.295
				c-3.227-0.471-5.671-2.658-5.671-5.295C886.985,483.206,889.43,481.019,892.656,480.547z"/>
			<rect x="802.599" y="528.987" fill="#472C3A" width="117.533" height="4.562"/>
		</g>
		<g id="BROWN_BLDG_1_">
			<path opacity="0.2" fill="#1F2D47" d="M245.938,234.525c0,3.735,36.33,6.765,81.144,6.765c44.811,0,81.143-3.029,81.143-6.765
				c0-3.737-36.33-6.765-81.143-6.765C282.268,227.76,245.938,230.788,245.938,234.525z"/>
			<g id="BLDG">
				<polygon fill="#472C3A" points="259.912,131.133 285.448,117.552 310.983,131.133 310.983,235.684 259.912,235.684 				"/>
				<polygon fill="#9C5941" points="363.878,117.552 285.448,117.552 310.983,131.133 310.983,235.684 389.415,235.684 
					389.415,131.133 				"/>
				<polygon fill="#FFFFFF" points="285.448,117.552 310.983,131.133 389.415,131.133 363.878,117.552 				"/>
			</g>
			<g id="WINDOW_55_">
				<rect x="359.805" y="141.606" fill="#030321" width="16.109" height="9.097"/>
				<polygon fill="#472C3A" points="359.805,142.472 372.931,142.472 372.931,150.703 375.914,150.703 375.914,141.606 
					359.805,141.606 				"/>
			</g>
			<g id="WINDOW_54_">
				<rect x="326.989" y="163.081" fill="#EAB41C" width="16.109" height="9.097"/>
				<polygon fill="#472C3A" points="326.989,163.946 340.115,163.946 340.115,172.177 343.099,172.177 343.099,163.081 
					326.989,163.081 				"/>
			</g>
			<g id="WINDOW_53_">
				<rect x="359.805" y="163.081" fill="#030321" width="16.109" height="9.097"/>
				<polygon fill="#472C3A" points="359.805,163.946 372.931,163.946 372.931,172.177 375.914,172.177 375.914,163.081 
					359.805,163.081 				"/>
			</g>
			<g id="WINDOW_51_">
				<rect x="359.805" y="199.893" fill="#030321" width="16.109" height="8.674"/>
				<polygon fill="#472C3A" points="359.805,200.719 372.931,200.719 372.931,208.567 375.914,208.567 375.914,199.893 
					359.805,199.893 				"/>
			</g>
			<g id="WINDOW_48_">
				<rect x="326.989" y="141.606" fill="#030321" width="16.109" height="9.097"/>
				<polygon fill="#472C3A" points="326.989,142.472 340.115,142.472 340.115,150.703 343.099,150.703 343.099,141.606 
					326.989,141.606 				"/>
			</g>
			<ellipse fill="#9C5941" cx="285.373" cy="144.44" rx="6.961" ry="4.204"/>
			<path fill="#030321" d="M286.665,140.316c-3.226,0.367-5.668,2.071-5.668,4.124c0,2.054,2.442,3.758,5.668,4.125
				c3.227-0.367,5.67-2.071,5.67-4.125C292.334,142.387,289.892,140.683,286.665,140.316z"/>
			<rect x="310.983" y="131.133" fill="#D6D6D6" width="78.431" height="2.619"/>
			<polygon fill="#C2C2C2" points="310.983,133.752 259.912,133.752 259.912,131.133 285.448,117.551 310.983,131.133 			"/>
			<rect x="259.912" y="231.122" fill="#472C3A" width="129.502" height="4.562"/>
		</g>
		<g id="BROWN_BLDG">
			<ellipse opacity="0.2" fill="#1F2D47" cx="181.098" cy="383.297" rx="117.341" ry="7.924"/>
			<polygon fill="#518C88" points="284.705,326.735 255.359,311.126 226.013,326.735 226.013,382.847 284.705,382.847 			"/>
			<polygon fill="#472C3A" points="193.92,313.161 255.359,311.126 226.013,326.735 226.013,382.847 166.926,382.905 
				166.926,326.792 			"/>
			<polygon fill="#FFFFFF" points="255.359,311.126 226.013,326.735 166.958,326.735 196.304,311.126 			"/>
			<g id="WINDOW_16_">
				<polyline fill="#75122E" points="190.748,338.63 190.748,350.69 187.765,350.69 187.765,337.362 203.875,337.362 
					203.875,338.63 				"/>
			</g>
			<g id="WINDOW_3_">
				<polyline fill="#75122E" points="203.875,359.258 203.875,360.528 190.748,360.528 190.748,372.586 187.765,372.586 
					187.765,359.258 				"/>
			</g>
			<ellipse fill="#472C3A" cx="258.306" cy="338.705" rx="6.961" ry="4.063"/>
			<path fill="#EAB41C" d="M257.016,334.718c3.226,0.356,5.669,2,5.669,3.986c0,1.985-2.443,3.632-5.669,3.988
				c-3.228-0.356-5.67-2.003-5.67-3.988C251.345,336.718,253.788,335.075,257.016,334.718z"/>
			<polygon fill="#472C3A" points="81.125,297.724 132.196,294.441 132.196,383.298 81.125,383.298 			"/>
			<polygon fill="#518C88" points="173.236,284.546 106.662,280.859 132.196,294.441 132.196,383.298 210.627,383.298 
				210.627,294.441 			"/>
			<polygon fill="#FFFFFF" points="106.662,280.859 132.196,294.441 210.627,294.441 185.093,280.859 			"/>
			<g id="WINDOW_29_">
				<rect x="181.019" y="304.914" fill="#EAB41C" width="16.109" height="8.409"/>
				<polygon fill="#472C3A" points="181.019,305.713 194.145,305.713 194.145,313.323 197.128,313.323 197.128,304.914 
					181.019,304.914 				"/>
			</g>
			<g id="WINDOW_36_">
				<rect x="148.203" y="326.387" fill="#030321" width="16.109" height="7.935"/>
				<polygon fill="#472C3A" points="148.203,327.142 161.329,327.142 161.329,334.322 164.312,334.322 164.312,326.387 
					148.203,326.387 				"/>
			</g>
			<g id="WINDOW_31_">
				<rect x="181.019" y="326.387" fill="#030321" width="16.109" height="7.935"/>
				<polygon fill="#472C3A" points="181.019,327.142 194.145,327.142 194.145,334.322 197.128,334.322 197.128,326.387 
					181.019,326.387 				"/>
			</g>
			<g id="WINDOW_42_">
				<rect x="148.203" y="348.285" fill="#EAB41C" width="16.109" height="7.934"/>
				<polygon fill="#472C3A" points="148.203,349.04 161.329,349.04 161.329,356.218 164.312,356.218 164.312,348.285 
					148.203,348.285 				"/>
			</g>
			<g id="WINDOW_38_">
				<rect x="181.019" y="348.285" fill="#030321" width="16.109" height="7.934"/>
				<polygon fill="#472C3A" points="181.019,349.04 194.145,349.04 194.145,356.218 197.128,356.218 197.128,348.285 
					181.019,348.285 				"/>
			</g>
			<g id="WINDOW_43_">
				<rect x="148.203" y="304.914" fill="#030321" width="16.109" height="8.409"/>
				<polygon fill="#472C3A" points="148.203,305.713 161.329,305.713 161.329,313.323 164.312,313.323 164.312,304.914 
					148.203,304.914 				"/>
			</g>
			<ellipse fill="#518C88" cx="106.586" cy="307.651" rx="6.961" ry="4.069"/>
			<path fill="#030321" d="M107.878,303.658c-3.225,0.355-5.668,2.005-5.668,3.993c0,1.989,2.443,3.639,5.668,3.994
				c3.228-0.355,5.669-2.005,5.669-3.994C113.547,305.663,111.105,304.013,107.878,303.658z"/>
			<g id="WINDOW_44_">
				<rect x="98.531" y="348.285" fill="#030321" width="16.11" height="7.934"/>
				<polygon fill="#518C88" points="114.641,349.342 101.514,349.342 101.514,356.218 98.531,356.218 98.531,348.285 
					114.641,348.285 				"/>
			</g>
			<rect x="210.627" y="326.735" fill="#D6D6D6" width="15.385" height="3.62"/>
			<polygon fill="#C2C2C2" points="226.013,330.355 284.705,330.355 284.705,326.735 255.141,311.011 226.013,326.735 			"/>
			<rect x="132.196" y="294.441" fill="#C2C2C2" width="78.431" height="3.283"/>
			<polygon fill="#D6D6D6" points="132.196,297.724 81.125,297.724 81.125,294.441 106.662,280.859 132.196,294.441 			"/>
			<rect x="81.125" y="378.737" fill="#472C3A" width="203.579" height="4.562"/>
		</g>
		<g id="PINK_BLDG">
			<path opacity="0.2" fill="#1F2D47" d="M489.373,417.594c0,3.641,40.133,6.594,89.637,6.594c49.502,0,89.637-2.953,89.637-6.594
				s-40.131-6.592-89.637-6.592C529.506,411.002,489.373,413.954,489.373,417.594z"/>
			<g id="BLUE_BLDG_4_">
				<polygon fill="#472C3A" points="505.286,361.544 534.633,345.936 563.979,361.544 563.979,417.657 505.286,417.657 				"/>
				<polygon fill="#A52543" points="616.2,349.787 534.633,345.936 563.979,361.544 563.979,417.657 654.11,417.657 654.11,361.544 
									"/>
				<polygon fill="#FFFFFF" points="534.633,345.936 563.979,361.544 654.11,361.544 624.767,345.936 				"/>
			</g>
			<rect x="577.951" y="343.78" fill="#A52543" width="9.26" height="13.391"/>
			<polygon fill="#472C3A" points="577.951,357.17 570.138,353.066 570.138,343.78 577.951,343.78 			"/>
			<rect x="569.008" y="341.621" fill="#FFFFFF" width="19.666" height="2.851"/>
			<rect x="569.008" y="341.621" fill="#D6D6D6" width="8.943" height="2.851"/>
			<rect x="618.544" y="343.78" fill="#A52543" width="9.261" height="13.391"/>
			<polygon fill="#472C3A" points="618.544,357.17 610.73,353.066 610.73,343.78 618.544,343.78 			"/>
			<rect x="609.601" y="341.621" fill="#FFFFFF" width="19.664" height="2.851"/>
			<rect x="609.601" y="341.621" fill="#D6D6D6" width="8.943" height="2.851"/>
			<g id="WINDOW_46_">
				<rect x="586.116" y="372.17" fill="#EAB41C" width="16.11" height="9.546"/>
				<polygon fill="#472C3A" points="586.116,373.08 599.244,373.08 599.244,381.716 602.227,381.716 602.227,372.17 586.116,372.17 
									"/>
			</g>
			<g id="WINDOW_72_">
				<rect x="618.54" y="372.17" fill="#EAB41C" width="16.108" height="9.546"/>
				<polygon fill="#472C3A" points="618.54,373.08 631.666,373.08 631.666,381.716 634.648,381.716 634.648,372.17 618.54,372.17 
									"/>
			</g>
			<g id="WINDOW_74_">
				<rect x="586.116" y="394.068" fill="#EAB41C" width="16.11" height="8.673"/>
				<polygon fill="#472C3A" points="586.116,394.893 599.244,394.893 599.244,402.741 602.227,402.741 602.227,394.068 
					586.116,394.068 				"/>
			</g>
			<g id="WINDOW_73_">
				<rect x="618.54" y="394.068" fill="#030321" width="16.108" height="8.673"/>
				<polygon fill="#472C3A" points="618.54,394.893 631.666,394.893 631.666,402.741 634.648,402.741 634.648,394.068 
					618.54,394.068 				"/>
			</g>
			<g id="WINDOW_75_">
				<rect x="526.575" y="372.17" fill="#030321" width="16.11" height="8.542"/>
				<polygon fill="#A52543" points="542.686,372.983 529.56,372.983 529.56,380.712 526.575,380.712 526.575,372.17 542.686,372.17 
									"/>
			</g>
			<rect x="563.979" y="361.544" fill="#D6D6D6" width="90.132" height="3.089"/>
			<polygon fill="#D6D6D6" points="505.286,364.633 563.979,364.633 563.979,361.544 534.633,345.936 505.287,361.544 			"/>
			<rect x="506.079" y="413.094" fill="#472C3A" width="148.031" height="4.563"/>
		</g>
		<g id="FUCHSIA_BLDG_1_">
			<path opacity="0.2" fill="#1F2D47" d="M117.639,548.006c0,4.376,70.198,7.924,156.787,7.924
				c86.586,0,156.787-3.548,156.787-7.924c0-4.377-70.198-7.923-156.787-7.923C187.837,540.083,117.639,543.629,117.639,548.006z"/>
			<polygon fill="#472C3A" points="241.145,466.79 274.773,449.134 307.97,466.79 307.97,548.39 241.145,548.39 			"/>
			<polygon fill="#472C3A" points="138.746,511.79 172.375,492.178 205.571,509.835 205.571,548.39 138.746,548.39 			"/>
			<polygon fill="#E4AE42" points="362.377,457.905 274.557,449.018 307.97,466.79 307.97,548.39 410.594,548.39 410.594,466.79 			
				"/>
			<polygon fill="#FFFFFF" points="274.557,449.018 307.97,466.79 410.594,466.79 377.181,449.018 			"/>
			<g id="WINDOW_15_">
				<rect x="328.368" y="479.166" fill="#030321" width="16.109" height="8.188"/>
				<polygon fill="#472C3A" points="328.368,479.948 341.494,479.948 341.494,487.353 344.477,487.353 344.477,479.166 
					328.368,479.166 				"/>
			</g>
			<g id="WINDOW_14_">
				<rect x="354.322" y="479.166" fill="#030321" width="16.11" height="8.188"/>
				<polygon fill="#472C3A" points="354.322,479.948 367.449,479.948 367.449,487.353 370.432,487.353 370.432,479.166 
					354.322,479.166 				"/>
			</g>
			<g id="WINDOW_13_">
				<rect x="380.053" y="479.166" fill="#030321" width="16.11" height="8.188"/>
				<polygon fill="#472C3A" points="380.053,479.948 393.179,479.948 393.179,487.353 396.163,487.353 396.163,479.166 
					380.053,479.166 				"/>
			</g>
			<g id="WINDOW_12_">
				<rect x="267.695" y="479.905" fill="#030321" width="14.917" height="7.5"/>
				<polygon fill="#E4AE42" points="282.612,479.905 269.485,479.905 269.485,487.405 266.501,487.405 266.501,479.116 
					282.612,479.116 				"/>
			</g>
			<rect x="329.447" y="442.089" fill="#436D77" width="11.338" height="16.396"/>
			<polygon fill="#75122E" points="329.447,458.486 319.879,453.46 319.879,442.089 329.447,442.089 			"/>
			<rect x="318.494" y="439.446" fill="#FFFFFF" width="24.081" height="3.491"/>
			<rect x="318.494" y="439.446" fill="#D6D6D6" width="10.953" height="3.491"/>
			<rect x="307.97" y="466.79" fill="#D6D6D6" width="102.624" height="2.484"/>
			<polygon fill="#C2C2C2" points="274.557,449.018 307.97,466.79 307.97,469.274 241.145,469.274 241.145,466.685 			"/>
			<rect x="354.101" y="534.955" fill="#030321" width="16.93" height="13.436"/>
			<g id="WINDOW_11_">
				<rect x="328.368" y="494.669" fill="#030321" width="16.109" height="8.186"/>
				<polygon fill="#472C3A" points="328.368,495.448 341.494,495.448 341.494,502.855 344.477,502.855 344.477,494.669 
					328.368,494.669 				"/>
			</g>
			<g id="WINDOW_10_">
				<rect x="354.322" y="494.669" fill="#030321" width="16.11" height="8.186"/>
				<polygon fill="#472C3A" points="354.322,495.448 367.449,495.448 367.449,502.855 370.432,502.855 370.432,494.669 
					354.322,494.669 				"/>
			</g>
			<g id="WINDOW_9_">
				<rect x="380.053" y="494.669" fill="#030321" width="16.11" height="8.186"/>
				<polygon fill="#472C3A" points="380.053,495.448 393.179,495.448 393.179,502.855 396.163,502.855 396.163,494.669 
					380.053,494.669 				"/>
			</g>
			<polygon fill="#FFFFFF" points="172.158,492.178 205.571,509.949 308.195,509.949 274.783,492.178 			"/>
			<rect x="205.571" y="509.949" fill="#D6D6D6" width="102.625" height="2.484"/>
			<polygon fill="#C2C2C2" points="172.158,492.178 205.571,509.949 205.571,512.433 138.746,512.433 138.746,509.845 			"/>
			<rect x="205.571" y="512.433" fill="#E4AE42" width="102.625" height="35.957"/>
			<g id="WINDOW_8_">
				<rect x="279.74" y="520.284" fill="#030321" width="16.11" height="8.186"/>
				<polygon fill="#472C3A" points="279.74,521.064 292.867,521.064 292.867,528.469 295.85,528.469 295.85,520.284 279.74,520.284 
									"/>
			</g>
			<g id="WINDOW_7_">
				<rect x="217.688" y="520.284" fill="#030321" width="16.109" height="8.186"/>
				<polygon fill="#472C3A" points="217.688,521.064 230.814,521.064 230.814,528.469 233.797,528.469 233.797,520.284 
					217.688,520.284 				"/>
			</g>
			<rect x="185.672" y="543.829" fill="#472C3A" width="224.922" height="4.562"/>
		</g>
	</g>
	<g id="SNOW_x2F_FLAKES">
		<ellipse fill="#FFFFFF" cx="913.923" cy="119.949" rx="10.113" ry="5.378"/>
		<ellipse fill="#FFFFFF" cx="913.923" cy="235.979" rx="10.113" ry="5.379"/>
		<ellipse fill="#FFFFFF" cx="164.76" cy="282.421" rx="5.056" ry="2.689"/>
		<ellipse fill="#FFFFFF" cx="297.274" cy="69.255" rx="5.055" ry="2.69"/>
		<ellipse fill="#FFFFFF" cx="146.212" cy="71.944" rx="10.113" ry="5.379"/>
		<ellipse fill="#FFFFFF" cx="717.944" cy="119.948" rx="8.479" ry="4.51"/>
		<ellipse fill="#FFFFFF" cx="1101.237" cy="134.974" rx="7.405" ry="3.94"/>
		<ellipse fill="#FFFFFF" cx="403.202" cy="58.497" rx="10.113" ry="5.38"/>
		<ellipse fill="#FFFFFF" cx="861.531" cy="55.808" rx="5.056" ry="2.689"/>
		<path fill="#FFFFFF" d="M1115.43,252.363c-3.243,1.729-8.511,1.729-11.757,0.001c-3.248-1.726-3.248-4.526,0-6.254
			c3.246-1.727,8.514-1.727,11.757,0C1118.677,247.836,1118.68,250.637,1115.43,252.363z"/>
		<ellipse fill="#FFFFFF" cx="380.424" cy="268.65" rx="5.056" ry="2.69"/>
		<ellipse fill="#FFFFFF" cx="202.625" cy="33.832" rx="10.113" ry="5.379"/>
		<ellipse fill="#FFFFFF" cx="120.469" cy="206.192" rx="10.113" ry="5.38"/>
		<ellipse fill="#FFFFFF" cx="1000.542" cy="249.236" rx="10.113" ry="5.379"/>
		<ellipse fill="#FFFFFF" cx="1023.22" cy="51.535" rx="7.136" ry="3.796"/>
		<ellipse fill="#FFFFFF" cx="831.48" cy="292.852" rx="7.94" ry="4.226"/>
		<ellipse fill="#FFFFFF" cx="254.498" cy="114.568" rx="9.406" ry="5.38"/>
		<ellipse fill="#FFFFFF" cx="287.531" cy="353.356" rx="6.097" ry="3.244"/>
		<ellipse fill="#FFFFFF" cx="70.121" cy="324.221" rx="6.708" ry="3.567"/>
		<ellipse fill="#FFFFFF" cx="1129.778" cy="336.893" rx="6.486" ry="3.45"/>
		<path fill="#FFFFFF" d="M953.327,351.8c0,1.91-2.914,3.461-6.505,3.461c-3.593,0-6.505-1.551-6.505-3.461
			c0-1.908,2.912-3.459,6.505-3.459C950.413,348.341,953.327,349.892,953.327,351.8z"/>
		<ellipse fill="#FFFFFF" cx="519.791" cy="32.413" rx="5.056" ry="2.69"/>
		<ellipse fill="#FFFFFF" cx="746.943" cy="18.964" rx="10.113" ry="5.38"/>
		<ellipse fill="#FFFFFF" cx="73.143" cy="36.709" rx="7.092" ry="3.773"/>
		<ellipse fill="#FFFFFF" cx="1119.665" cy="69.254" rx="10.112" ry="5.38"/>
		<path fill="#FFFFFF" d="M256.505,432.642c0,1.792-2.73,3.245-6.097,3.245s-6.097-1.453-6.097-3.245
			c0-1.789,2.73-3.241,6.097-3.241S256.505,430.853,256.505,432.642z"/>
		<ellipse fill="#FFFFFF" cx="76.829" cy="429.428" rx="6.097" ry="3.244"/>
		<ellipse fill="#FFFFFF" cx="89.634" cy="487.487" rx="6.708" ry="3.568"/>
		<ellipse fill="#FFFFFF" cx="1136.264" cy="424.468" rx="6.486" ry="3.451"/>
		<ellipse fill="#FFFFFF" cx="1028.727" cy="192.109" rx="6.486" ry="3.451"/>
		<ellipse fill="#FFFFFF" cx="1123.292" cy="491.979" rx="6.486" ry="3.451"/>
		<ellipse fill="#FFFFFF" cx="175.914" cy="410.864" rx="6.487" ry="3.45"/>
		<ellipse fill="#FFFFFF" cx="183.472" cy="344.641" rx="10.113" ry="5.378"/>
		<ellipse fill="#FFFFFF" cx="898.971" cy="320.653" rx="10.113" ry="5.38"/>
		<ellipse fill="#FFFFFF" cx="618.535" cy="249.237" rx="10.113" ry="5.378"/>
		<ellipse fill="#FFFFFF" cx="436.939" cy="111.491" rx="10.113" ry="5.379"/>
		<ellipse fill="#FFFFFF" cx="480.024" cy="88.834" rx="5.057" ry="2.689"/>
		<ellipse fill="#FFFFFF" cx="604.613" cy="138.914" rx="10.113" ry="5.378"/>
		<ellipse fill="#FFFFFF" cx="935.062" cy="27.335" rx="5.056" ry="2.689"/>
		<ellipse fill="#FFFFFF" cx="215.429" cy="265.96" rx="5.056" ry="2.69"/>
		<ellipse fill="#FFFFFF" cx="464.679" cy="268.651" rx="5.057" ry="2.689"/>
		<ellipse fill="#FFFFFF" cx="495.925" cy="312.951" rx="5.057" ry="2.688"/>
		<ellipse fill="#FFFFFF" cx="604.613" cy="332.079" rx="10.113" ry="5.379"/>
		<ellipse fill="#FFFFFF" cx="786.672" cy="335.656" rx="10.113" ry="5.38"/>
		<ellipse fill="#FFFFFF" cx="687.465" cy="370.731" rx="10.112" ry="5.379"/>
		<ellipse fill="#FFFFFF" cx="407.62" cy="371.342" rx="5.055" ry="2.688"/>
		<ellipse fill="#FFFFFF" cx="648.667" cy="31.144" rx="5.055" ry="2.689"/>
		<path fill="#FFFFFF" d="M806.545,72.223l-5.914-0.785l4.117-0.984c0.602-0.143,0.87-0.518,0.604-0.839
			c-0.271-0.319-0.978-0.463-1.578-0.319l-6.896,1.645l-1.412-0.188l6.279-2.878c0.5-0.228,0.555-0.629,0.128-0.895
			c-0.432-0.266-1.187-0.295-1.688-0.066l-7.555,3.463l-3.695-0.489l-7.418-0.982l5.329-2.917l2.652-1.452l9.854,0.823
			c0.652,0.055,1.265-0.183,1.364-0.529c0.105-0.346-0.34-0.671-0.99-0.725l-8.191-0.684l1.015-0.556l7.49-0.536
			c0.653-0.047,1.109-0.367,1.024-0.714c-0.092-0.347-0.69-0.591-1.344-0.544l-4.475,0.319l4.248-2.325
			c0.461-0.252,0.448-0.652-0.027-0.897c-0.47-0.244-1.225-0.238-1.686,0.013l-4.189,2.292l0.521-2.292
			c0.078-0.349-0.382-0.665-1.042-0.706c-0.654-0.042-1.248,0.206-1.326,0.553l-0.896,3.948l-1.086,0.593l-1.894-4.608
			c-0.136-0.345-0.774-0.561-1.423-0.484c-0.641,0.075-1.049,0.413-0.909,0.756l2.235,5.427l-2.639,1.444l-5.337,2.92l-2.1-3.917
			l-1.045-1.948l6.253-4.134c0.418-0.273,0.333-0.672-0.18-0.893c-0.514-0.219-1.266-0.177-1.675,0.097l-5.2,3.435l-0.398-0.745
			l2.859-3.721c0.247-0.323-0.043-0.694-0.652-0.828c-0.612-0.13-1.309,0.023-1.559,0.349l-1.709,2.222l-1.672-3.117
			c-0.182-0.338-0.841-0.532-1.475-0.436c-0.634,0.096-1.002,0.447-0.82,0.784l1.647,3.075l-3.477-1.382
			c-0.53-0.211-1.272-0.155-1.672,0.128c-0.391,0.28-0.287,0.678,0.245,0.888l5.985,2.38l0.424,0.795l-8.453-1.423
			c-0.632-0.109-1.302,0.079-1.499,0.414c-0.198,0.333,0.149,0.69,0.776,0.796l9.962,1.676l1.036,1.936l2.101,3.917l-7.432-0.985
			l-3.672-0.487l-3.483-5.237c-0.221-0.331-0.903-0.504-1.521-0.387c-0.626,0.116-0.954,0.479-0.729,0.81l2.961,4.446l-1.512-0.199
			l-4.675-3.103c-0.41-0.273-1.161-0.316-1.673-0.098c-0.521,0.221-0.599,0.618-0.188,0.893l2.713,1.801l-5.834-0.772
			c-0.638-0.085-1.286,0.122-1.442,0.461c-0.16,0.341,0.227,0.686,0.867,0.77l5.917,0.784l-4.12,0.984
			c-0.601,0.143-0.87,0.519-0.604,0.839c0.271,0.319,0.978,0.463,1.578,0.319l6.896-1.646l1.414,0.188l-6.279,2.878
			c-0.501,0.228-0.556,0.629-0.126,0.894c0.429,0.267,1.183,0.296,1.686,0.066l7.557-3.463l3.693,0.489l7.418,0.984l-5.328,2.916
			l-2.654,1.452l-9.854-0.824c-0.652-0.055-1.262,0.183-1.366,0.53c-0.103,0.345,0.344,0.671,0.993,0.724l8.19,0.684l-1.015,0.556
			l-7.489,0.536c-0.654,0.046-1.109,0.367-1.024,0.713c0.092,0.347,0.689,0.591,1.344,0.544l4.475-0.319l-4.248,2.325
			c-0.461,0.251-0.449,0.653,0.026,0.898c0.472,0.244,1.227,0.238,1.686-0.013l4.19-2.292l-0.52,2.291
			c-0.081,0.35,0.382,0.666,1.039,0.708c0.656,0.041,1.249-0.207,1.329-0.554l0.895-3.948l1.086-0.592l1.893,4.608
			c0.137,0.345,0.775,0.56,1.422,0.484c0.64-0.074,1.052-0.413,0.91-0.755l-2.233-5.427l2.639-1.444l5.337-2.921l2.1,3.917
			l1.044,1.948l-6.253,4.134c-0.417,0.273-0.334,0.673,0.179,0.894c0.514,0.218,1.266,0.176,1.677-0.098l5.199-3.434l0.398,0.745
			l-2.859,3.721c-0.248,0.324,0.044,0.695,0.652,0.828c0.612,0.129,1.31-0.023,1.559-0.349l1.71-2.222l1.67,3.117
			c0.182,0.338,0.841,0.533,1.476,0.437c0.634-0.097,1.002-0.447,0.821-0.785l-1.647-3.075l3.477,1.382
			c0.528,0.21,1.272,0.155,1.67-0.128c0.393-0.28,0.287-0.678-0.245-0.888l-5.984-2.381l-0.425-0.795l8.455,1.424
			c0.631,0.109,1.298-0.079,1.498-0.414c0.197-0.333-0.149-0.69-0.776-0.796l-9.961-1.676l-1.038-1.936l-2.101-3.918l7.432,0.985
			l3.673,0.487l3.485,5.238c0.219,0.33,0.903,0.503,1.52,0.387c0.625-0.117,0.955-0.479,0.729-0.811l-2.961-4.446l1.51,0.199
			l4.676,3.103c0.41,0.272,1.161,0.316,1.676,0.098c0.517-0.221,0.599-0.619,0.184-0.894l-2.713-1.8l5.834,0.771
			c0.639,0.085,1.287-0.122,1.443-0.461C807.572,72.65,807.188,72.307,806.545,72.223z"/>
		<path fill="#FFFFFF" d="M147.311,143.125l-2.192-3.229l4.056,1.345c0.592,0.197,1.369,0.101,1.743-0.212
			c0.367-0.315,0.19-0.73-0.402-0.927l-6.787-2.255l-0.523-0.772l8.462,1.24c0.672,0.101,1.368-0.111,1.553-0.468
			c0.186-0.358-0.21-0.729-0.885-0.828l-10.183-1.492l-1.371-2.017l-2.75-4.05l7.966,0.772l3.966,0.386l4.451,5.095
			c0.295,0.337,1.046,0.482,1.679,0.326s0.911-0.555,0.613-0.892l-3.699-4.234l1.52,0.147l5.303,3.188
			c0.461,0.278,1.26,0.302,1.783,0.057c0.52-0.248,0.571-0.671,0.107-0.948l-3.166-1.906l6.351,0.616
			c0.687,0.067,1.343-0.174,1.467-0.541c0.127-0.364-0.329-0.713-1.016-0.78l-6.26-0.609l4.093-1.108
			c0.626-0.169,0.874-0.572,0.554-0.905c-0.316-0.33-1.075-0.462-1.694-0.294l-7.058,1.908l-1.62-0.158l6.503-3.604
			c0.491-0.267,0.469-0.693-0.04-0.951c-0.5-0.256-1.302-0.247-1.784,0.021l-7.656,4.247l-3.947-0.383l-7.976-0.773l5.239-3.293
			l2.606-1.638l10.524,0.487c0.696,0.034,1.309-0.24,1.368-0.611c0.061-0.368-0.452-0.696-1.146-0.727l-8.747-0.407l0.998-0.626
			l7.838-0.857c0.683-0.074,1.125-0.429,0.985-0.792c-0.146-0.364-0.81-0.599-1.497-0.523l-4.681,0.511l4.169-2.62
			c0.451-0.284,0.385-0.708-0.149-0.948c-0.534-0.24-1.33-0.205-1.781,0.079l-4.112,2.584l0.236-2.441
			c0.036-0.373-0.496-0.688-1.199-0.706c-0.695-0.02-1.289,0.266-1.324,0.636l-0.408,4.204l-1.062,0.668l-2.63-4.794
			c-0.195-0.36-0.898-0.562-1.57-0.457c-0.667,0.104-1.055,0.476-0.86,0.833l3.104,5.648l-2.588,1.628l-5.241,3.292l-2.754-4.056
			l-1.361-2.005l6.607-4.719c0.416-0.298,0.302-0.72-0.258-0.94c-0.561-0.225-1.354-0.165-1.769,0.136l-5.606,4.007l-0.56-0.823
			l2.371-4.017c0.209-0.354-0.161-0.729-0.824-0.841c-0.673-0.113-1.376,0.084-1.586,0.44l-1.377,2.331l-2.164-3.184
			c-0.235-0.349-0.96-0.53-1.615-0.403c-0.659,0.125-0.998,0.51-0.759,0.86l2.19,3.229l-4.055-1.346
			c-0.592-0.197-1.37-0.1-1.744,0.214c-0.366,0.314-0.19,0.729,0.404,0.925l6.787,2.255l0.522,0.773l-8.464-1.24
			c-0.671-0.101-1.367,0.111-1.551,0.468c-0.186,0.358,0.209,0.729,0.883,0.828l10.184,1.492l1.369,2.016l2.75,4.051l-7.965-0.773
			l-3.966-0.385l-4.449-5.095c-0.294-0.338-1.049-0.483-1.681-0.328c-0.632,0.156-0.909,0.556-0.612,0.892l3.699,4.235l-1.52-0.147
			l-5.304-3.188c-0.461-0.278-1.261-0.302-1.783-0.057c-0.518,0.247-0.57,0.671-0.107,0.949l3.167,1.905l-6.349-0.616
			c-0.688-0.068-1.345,0.174-1.468,0.541c-0.127,0.363,0.329,0.714,1.014,0.781l6.262,0.608l-4.094,1.108
			c-0.626,0.168-0.874,0.572-0.555,0.903c0.317,0.331,1.075,0.463,1.696,0.295l7.058-1.909l1.62,0.158l-6.503,3.603
			c-0.491,0.267-0.47,0.693,0.036,0.95c0.501,0.256,1.305,0.248,1.788-0.02l7.656-4.246l3.946,0.383l7.974,0.773l-5.237,3.293
			l-2.605,1.638l-10.525-0.487c-0.696-0.034-1.31,0.24-1.37,0.611c-0.06,0.368,0.454,0.696,1.147,0.727l8.749,0.406l-0.999,0.626
			l-7.838,0.857c-0.682,0.075-1.124,0.429-0.985,0.793c0.147,0.363,0.811,0.599,1.497,0.523l4.683-0.511l-4.169,2.62
			c-0.451,0.284-0.385,0.708,0.148,0.947c0.534,0.24,1.331,0.204,1.782-0.079l4.112-2.584l-0.236,2.441
			c-0.035,0.373,0.496,0.687,1.2,0.707c0.694,0.018,1.288-0.266,1.323-0.637l0.408-4.205l1.063-0.668l2.631,4.794
			c0.194,0.361,0.897,0.562,1.569,0.457c0.668-0.103,1.055-0.476,0.859-0.833l-3.102-5.648l2.588-1.628l5.239-3.292l2.754,4.057
			l1.362,2.005l-6.607,4.718c-0.416,0.298-0.298,0.721,0.259,0.941c0.561,0.223,1.354,0.164,1.769-0.137l5.605-4.007l0.561,0.824
			l-2.372,4.018c-0.209,0.353,0.162,0.729,0.826,0.841c0.669,0.113,1.375-0.084,1.584-0.44l1.378-2.331l2.163,3.184
			c0.236,0.349,0.961,0.529,1.616,0.403C147.21,143.858,147.549,143.475,147.311,143.125z"/>
		<path fill="#FFFFFF" d="M585.651,77.892l-1.751-3.105l3.693,1.382c0.538,0.202,1.28,0.132,1.664-0.153
			c0.376-0.287,0.251-0.683-0.289-0.884l-6.18-2.314l-0.418-0.743l7.859,1.404c0.625,0.112,1.301-0.068,1.511-0.399
			c0.21-0.333-0.128-0.693-0.753-0.805l-9.458-1.688l-1.094-1.939l-2.198-3.895l7.437,0.948l3.701,0.473l3.698,4.927
			c0.245,0.326,0.94,0.485,1.553,0.354c0.61-0.13,0.91-0.499,0.665-0.824l-3.074-4.095l1.416,0.181l4.691,3.152
			c0.408,0.275,1.158,0.32,1.675,0.104c0.513-0.219,0.604-0.618,0.193-0.892l-2.8-1.883l5.929,0.756
			c0.643,0.082,1.284-0.127,1.438-0.47c0.153-0.34-0.242-0.682-0.881-0.764l-5.846-0.747l3.969-0.931
			c0.605-0.143,0.878-0.515,0.611-0.838c-0.267-0.32-0.97-0.465-1.571-0.324l-6.84,1.605l-1.513-0.194l6.484-3.217
			c0.488-0.239,0.509-0.641,0.057-0.898c-0.448-0.255-1.203-0.269-1.686-0.03l-7.635,3.792l-3.681-0.47l-7.448-0.95l5.264-2.959
			l2.615-1.472l9.876,0.75c0.654,0.051,1.258-0.191,1.351-0.538c0.093-0.346-0.36-0.669-1.011-0.717l-8.208-0.625l1.001-0.563
			l7.476-0.591c0.651-0.052,1.102-0.375,1.007-0.721c-0.104-0.347-0.705-0.587-1.358-0.535l-4.468,0.352l4.188-2.355
			c0.453-0.254,0.432-0.656-0.046-0.897c-0.48-0.241-1.234-0.23-1.688,0.024l-4.13,2.324l0.46-2.296
			c0.072-0.35-0.398-0.661-1.061-0.699c-0.652-0.037-1.241,0.215-1.312,0.564l-0.793,3.953l-1.068,0.6l-2.012-4.592
			c-0.148-0.346-0.791-0.555-1.435-0.475c-0.641,0.079-1.042,0.419-0.893,0.761l2.374,5.411l-2.6,1.463l-5.263,2.96l-2.2-3.901
			l-1.088-1.929l6.69-4.267c0.42-0.269,0.354-0.669-0.15-0.892c-0.51-0.227-1.262-0.193-1.682,0.08l-5.678,3.623l-0.449-0.792
			l2.631-3.722c0.231-0.327-0.081-0.692-0.695-0.815c-0.624-0.125-1.307,0.042-1.54,0.371l-1.526,2.159l-1.729-3.062
			c-0.188-0.335-0.854-0.526-1.482-0.425c-0.636,0.101-0.992,0.453-0.801,0.79l1.749,3.105l-3.691-1.38
			c-0.539-0.203-1.282-0.133-1.664,0.152c-0.378,0.286-0.252,0.682,0.288,0.884l6.181,2.314l0.417,0.743l-7.858-1.403
			c-0.625-0.113-1.301,0.067-1.51,0.399c-0.212,0.333,0.127,0.693,0.753,0.804l9.457,1.689l1.094,1.939l2.197,3.895l-7.436-0.949
			l-3.702-0.472l-3.698-4.928c-0.244-0.326-0.939-0.485-1.554-0.355c-0.608,0.13-0.909,0.5-0.664,0.825l3.076,4.094l-1.42-0.18
			l-4.688-3.152c-0.408-0.276-1.159-0.321-1.675-0.104c-0.517,0.219-0.604,0.618-0.194,0.892l2.799,1.884l-5.928-0.756
			c-0.641-0.082-1.282,0.127-1.437,0.469c-0.155,0.34,0.239,0.682,0.882,0.764l5.843,0.747l-3.969,0.932
			c-0.607,0.141-0.878,0.514-0.612,0.837c0.269,0.32,0.971,0.466,1.572,0.325l6.841-1.605l1.511,0.194l-6.481,3.217
			c-0.49,0.239-0.511,0.641-0.059,0.896c0.447,0.256,1.204,0.27,1.686,0.031l7.636-3.792l3.682,0.47l7.446,0.95l-5.263,2.959
			l-2.615,1.471l-9.876-0.75c-0.653-0.051-1.258,0.191-1.352,0.539c-0.092,0.346,0.359,0.668,1.011,0.717l8.207,0.625l-1.001,0.563
			l-7.476,0.591c-0.647,0.052-1.102,0.374-1.003,0.721c0.1,0.347,0.703,0.587,1.357,0.534l4.466-0.352l-4.188,2.355
			c-0.451,0.256-0.431,0.656,0.049,0.898c0.479,0.241,1.234,0.23,1.686-0.026l4.13-2.323l-0.458,2.295
			c-0.072,0.351,0.397,0.662,1.061,0.7c0.653,0.037,1.241-0.215,1.31-0.565l0.794-3.953l1.068-0.601l2.014,4.593
			c0.146,0.345,0.79,0.555,1.435,0.474c0.641-0.079,1.04-0.419,0.891-0.761l-2.373-5.411l2.6-1.463l5.263-2.959l2.199,3.9
			l1.088,1.929l-6.69,4.267c-0.42,0.27-0.352,0.671,0.152,0.894c0.507,0.226,1.26,0.192,1.681-0.081l5.679-3.623l0.447,0.792
			l-2.63,3.723c-0.231,0.327,0.081,0.692,0.699,0.817c0.619,0.124,1.304-0.042,1.535-0.372l1.528-2.16l1.728,3.062
			c0.19,0.336,0.854,0.526,1.483,0.426C585.485,78.582,585.844,78.229,585.651,77.892z"/>
		<path fill="#FFFFFF" d="M526.165,181.135l-5.523,0.186l3.056-1.454c0.447-0.211,0.483-0.575,0.088-0.813
			c-0.398-0.236-1.083-0.259-1.529-0.046l-5.117,2.43l-1.321,0.044l3.948-3.408c0.316-0.27,0.155-0.625-0.352-0.792
			c-0.513-0.167-1.18-0.082-1.494,0.189l-4.75,4.101l-3.449,0.116l-6.927,0.234l3.105-3.302l1.546-1.645l8.95-0.727
			c0.594-0.048,1.001-0.343,0.909-0.657c-0.09-0.315-0.643-0.531-1.232-0.482l-7.439,0.605l0.591-0.63l6.204-1.558
			c0.542-0.135,0.771-0.479,0.518-0.767c-0.259-0.287-0.901-0.411-1.443-0.274l-3.707,0.931l2.474-2.633
			c0.271-0.285,0.054-0.63-0.484-0.773c-0.532-0.143-1.184-0.027-1.451,0.259l-2.442,2.594l-0.734-2.057
			c-0.111-0.314-0.674-0.52-1.266-0.459c-0.586,0.059-0.973,0.359-0.861,0.671l1.263,3.547l-0.633,0.671l-4.019-3.71
			c-0.296-0.279-0.961-0.371-1.481-0.21c-0.518,0.157-0.693,0.511-0.396,0.787l4.735,4.369l-1.539,1.636l-3.108,3.306l-3.839-3.082
			l-1.91-1.534l3.279-4.49c0.217-0.297-0.062-0.631-0.618-0.746c-0.556-0.115-1.188,0.031-1.401,0.328l-2.725,3.732l-0.73-0.586
			l0.553-3.637c0.047-0.316-0.395-0.596-0.992-0.622c-0.598-0.023-1.12,0.211-1.168,0.529l-0.332,2.172l-3.054-2.453
			c-0.331-0.265-1.004-0.338-1.502-0.163c-0.5,0.176-0.636,0.534-0.306,0.799l3.014,2.42l-3.722-0.688
			c-0.569-0.104-1.183,0.051-1.382,0.355c-0.193,0.299,0.104,0.628,0.669,0.733l6.408,1.186l0.779,0.625l-8.049,0.002
			c-0.604-0.002-1.084,0.258-1.083,0.577c0,0.317,0.484,0.577,1.08,0.577l9.487-0.005l1.897,1.525l3.839,3.082l-6.938,0.233
			l-3.433,0.115l-5.716-4.022c-0.362-0.254-1.042-0.305-1.517-0.113c-0.481,0.192-0.58,0.554-0.214,0.808l4.858,3.415l-1.409,0.048
			l-5.648-2.001c-0.496-0.176-1.168-0.104-1.497,0.16c-0.337,0.267-0.201,0.622,0.3,0.8l3.275,1.162l-5.443,0.184
			c-0.599,0.021-1.054,0.293-1.015,0.61c0.038,0.319,0.551,0.56,1.15,0.54l5.521-0.186l-3.056,1.453
			c-0.447,0.212-0.482,0.575-0.087,0.814c0.398,0.236,1.082,0.258,1.527,0.046l5.119-2.431l1.32-0.044l-3.949,3.407
			c-0.314,0.271-0.154,0.626,0.354,0.792c0.511,0.167,1.179,0.083,1.492-0.188l4.751-4.101l3.449-0.116l6.93-0.233l-3.107,3.301
			l-1.547,1.645l-8.952,0.727c-0.592,0.048-0.999,0.342-0.909,0.658c0.091,0.314,0.645,0.531,1.233,0.482l7.44-0.605l-0.592,0.629
			l-6.204,1.559c-0.542,0.135-0.771,0.479-0.516,0.767c0.258,0.287,0.901,0.411,1.442,0.274l3.708-0.929l-2.476,2.632
			c-0.271,0.286-0.053,0.63,0.485,0.773c0.532,0.143,1.184,0.027,1.451-0.257l2.443-2.596l0.731,2.058
			c0.109,0.315,0.677,0.52,1.267,0.46c0.586-0.061,0.974-0.361,0.862-0.673l-1.262-3.546l0.633-0.671l4.017,3.711
			c0.296,0.278,0.96,0.371,1.477,0.21c0.52-0.157,0.699-0.51,0.4-0.787l-4.734-4.37l1.54-1.636l3.106-3.307l3.842,3.083l1.909,1.533
			l-3.278,4.49c-0.22,0.297,0.061,0.631,0.618,0.746c0.555,0.115,1.188-0.032,1.399-0.328l2.727-3.731l0.729,0.585l-0.553,3.638
			c-0.047,0.315,0.396,0.594,0.992,0.621c0.597,0.023,1.119-0.211,1.168-0.53l0.332-2.172l3.056,2.454
			c0.332,0.266,1.002,0.338,1.501,0.162c0.499-0.175,0.637-0.532,0.306-0.799l-3.014-2.419l3.722,0.688
			c0.568,0.105,1.181-0.052,1.381-0.355c0.194-0.3-0.103-0.628-0.669-0.732l-6.408-1.186l-0.778-0.625l8.05-0.002
			c0.603,0.001,1.085-0.258,1.081-0.578c0-0.318-0.483-0.576-1.081-0.576l-9.484,0.005l-1.897-1.523l-3.84-3.083l6.938-0.232
			l3.431-0.116l5.716,4.023c0.362,0.253,1.046,0.303,1.52,0.111c0.479-0.191,0.577-0.552,0.213-0.806l-4.856-3.415l1.407-0.048
			l5.648,2.002c0.496,0.176,1.168,0.103,1.501-0.161c0.334-0.266,0.199-0.623-0.304-0.798l-3.276-1.162l5.445-0.184
			c0.6-0.02,1.051-0.294,1.014-0.61C527.274,181.354,526.763,181.114,526.165,181.135z"/>
		<path fill="#FFFFFF" d="M417.844,323.776l-5.284-1.616l4.468-0.347c0.653-0.049,1.102-0.372,1.011-0.719
			c-0.095-0.346-0.699-0.588-1.352-0.536l-7.479,0.576l-1.263-0.387l7.523-1.852c0.599-0.146,0.857-0.525,0.583-0.842
			c-0.277-0.319-0.988-0.458-1.587-0.311l-9.053,2.229l-3.299-1.009l-6.628-2.026l6.628-2.028l3.299-1.009l9.053,2.229
			c0.599,0.147,1.31,0.008,1.585-0.311c0.277-0.316,0.019-0.695-0.58-0.842l-7.523-1.852l1.263-0.387l7.479,0.576
			c0.653,0.052,1.257-0.19,1.352-0.536c0.09-0.347-0.358-0.67-1.011-0.719l-4.468-0.347l5.284-1.616
			c0.573-0.175,0.768-0.562,0.438-0.866c-0.327-0.304-1.055-0.408-1.627-0.232l-5.212,1.593l1.681-2.127
			c0.256-0.326-0.026-0.696-0.639-0.832c-0.606-0.136-1.306,0.016-1.56,0.338l-2.896,3.665l-1.35,0.412l0.555-4.707
			c0.046-0.353-0.457-0.652-1.119-0.673c-0.655-0.022-1.221,0.244-1.263,0.594l-0.651,5.545l-3.281,1.004l-6.638,2.031v-4.074
			v-2.026l8.146-3.063c0.541-0.202,0.666-0.599,0.288-0.886c-0.381-0.284-1.127-0.354-1.662-0.15l-6.772,2.545v-0.774l4.669-3.161
			c0.405-0.276,0.317-0.675-0.2-0.892c-0.523-0.214-1.271-0.169-1.679,0.108l-2.791,1.888v-3.242c0-0.351-0.533-0.634-1.193-0.634
			c-0.659,0-1.193,0.283-1.193,0.634v3.197l-2.63-1.836c-0.401-0.28-1.144-0.335-1.674-0.12c-0.521,0.212-0.625,0.609-0.224,0.889
			l4.528,3.163v0.825l-7.395-2.602c-0.552-0.196-1.291-0.113-1.654,0.181c-0.364,0.29-0.215,0.686,0.336,0.878l8.713,3.064v2.014
			v4.074l-6.638-2.031l-3.282-1.004l-0.649-5.545c-0.042-0.35-0.609-0.616-1.263-0.594c-0.663,0.021-1.166,0.32-1.12,0.673
			l0.555,4.707l-1.349-0.412l-2.897-3.665c-0.254-0.322-0.953-0.474-1.56-0.338c-0.613,0.136-0.895,0.506-0.639,0.832l1.68,2.127
			l-5.211-1.593c-0.571-0.176-1.3-0.071-1.626,0.232c-0.332,0.305-0.135,0.691,0.438,0.866l5.283,1.616l-4.468,0.347
			c-0.652,0.049-1.103,0.372-1.011,0.719c0.095,0.346,0.698,0.588,1.351,0.536l7.479-0.576l1.263,0.387l-7.523,1.852
			c-0.599,0.146-0.859,0.525-0.58,0.842c0.274,0.318,0.985,0.458,1.583,0.311l9.052-2.229l3.301,1.009l6.627,2.028l-6.627,2.026
			l-3.301,1.009l-9.052-2.229c-0.598-0.147-1.309-0.009-1.586,0.311c-0.276,0.316-0.017,0.695,0.583,0.842l7.523,1.852l-1.263,0.387
			l-7.479-0.576c-0.653-0.052-1.256,0.19-1.351,0.536c-0.092,0.347,0.359,0.67,1.011,0.719l4.468,0.347l-5.283,1.616
			c-0.573,0.175-0.77,0.562-0.438,0.866c0.326,0.304,1.055,0.408,1.626,0.232l5.211-1.593l-1.68,2.127
			c-0.259,0.326,0.025,0.696,0.636,0.832c0.609,0.136,1.308-0.016,1.563-0.338l2.897-3.665l1.349-0.412l-0.555,4.707
			c-0.046,0.353,0.457,0.652,1.117,0.673c0.655,0.022,1.224-0.244,1.266-0.594l0.649-5.545l3.282-1.004l6.638-2.031v4.074v2.026
			l-8.145,3.063c-0.541,0.202-0.668,0.599-0.288,0.886c0.38,0.284,1.126,0.354,1.662,0.15l6.771-2.545v0.774l-4.668,3.161
			c-0.405,0.275-0.316,0.675,0.201,0.892c0.523,0.214,1.27,0.169,1.678-0.108l2.79-1.888v3.242c0,0.351,0.534,0.634,1.193,0.634
			c0.661,0,1.193-0.283,1.193-0.634v-3.197l2.632,1.836c0.401,0.28,1.144,0.335,1.674,0.12c0.521-0.212,0.624-0.609,0.223-0.889
			l-4.529-3.163v-0.825l7.396,2.602c0.553,0.196,1.291,0.113,1.655-0.181c0.364-0.29,0.214-0.686-0.336-0.878l-8.715-3.064v-2.014
			v-4.074l6.638,2.031l3.281,1.004l0.651,5.545c0.042,0.35,0.61,0.616,1.266,0.594c0.659-0.021,1.163-0.32,1.116-0.673l-0.555-4.707
			l1.35,0.412l2.896,3.665c0.254,0.322,0.954,0.474,1.562,0.338c0.611-0.136,0.895-0.506,0.637-0.832l-1.681-2.127l5.212,1.593
			c0.572,0.176,1.3,0.071,1.627-0.232C418.612,324.337,418.417,323.951,417.844,323.776z"/>
		<path fill="#FFFFFF" d="M1025.296,152.994l-5.282-1.616l4.467-0.346c0.652-0.05,1.103-0.372,1.011-0.719
			c-0.095-0.346-0.698-0.588-1.351-0.537l-7.479,0.576l-1.264-0.387l7.523-1.852c0.6-0.146,0.858-0.524,0.583-0.841
			c-0.277-0.319-0.989-0.458-1.586-0.311l-9.053,2.229l-3.301-1.009l-6.629-2.027l6.629-2.028l3.301-1.009l9.053,2.229
			c0.597,0.148,1.309,0.009,1.584-0.31c0.277-0.318,0.019-0.695-0.581-0.842l-7.523-1.852l1.264-0.387l7.479,0.576
			c0.652,0.051,1.256-0.191,1.351-0.537c0.092-0.347-0.358-0.669-1.011-0.719l-4.467-0.346l5.282-1.617
			c0.572-0.174,0.77-0.562,0.438-0.866c-0.326-0.304-1.057-0.408-1.628-0.233l-5.21,1.593l1.68-2.127
			c0.257-0.324-0.024-0.695-0.639-0.832c-0.606-0.135-1.304,0.016-1.559,0.338l-2.897,3.666l-1.35,0.412l0.556-4.707
			c0.047-0.353-0.458-0.652-1.119-0.673c-0.654-0.022-1.223,0.244-1.265,0.594l-0.648,5.545l-3.282,1.004l-6.637,2.031v-4.074
			v-2.025l8.145-3.063c0.541-0.202,0.667-0.598,0.286-0.885c-0.378-0.285-1.124-0.354-1.661-0.151l-6.77,2.545v-0.774l4.668-3.162
			c0.405-0.275,0.315-0.674-0.2-0.891c-0.523-0.214-1.271-0.169-1.679,0.108l-2.789,1.888v-3.242c0-0.351-0.535-0.634-1.194-0.634
			s-1.192,0.283-1.192,0.634v3.197l-2.632-1.836c-0.401-0.28-1.145-0.334-1.673-0.12c-0.523,0.212-0.626,0.61-0.225,0.889
			l4.529,3.163v0.827l-7.396-2.602c-0.553-0.197-1.291-0.114-1.655,0.179c-0.363,0.292-0.214,0.686,0.337,0.879l8.715,3.064v2.013
			v4.074l-6.639-2.031l-3.281-1.004l-0.65-5.545c-0.042-0.35-0.607-0.616-1.264-0.594c-0.662,0.021-1.165,0.321-1.119,0.673
			l0.555,4.707l-1.35-0.412l-2.896-3.666c-0.253-0.322-0.953-0.474-1.56-0.338c-0.611,0.136-0.896,0.507-0.639,0.832l1.682,2.127
			l-5.212-1.593c-0.572-0.174-1.301-0.071-1.627,0.233c-0.331,0.305-0.136,0.692,0.438,0.866l5.284,1.617l-4.468,0.346
			c-0.653,0.049-1.103,0.372-1.011,0.719c0.096,0.346,0.7,0.587,1.352,0.537l7.479-0.576l1.263,0.387l-7.523,1.852
			c-0.597,0.146-0.857,0.524-0.579,0.842c0.274,0.318,0.985,0.458,1.585,0.31l9.052-2.229l3.3,1.009l6.629,2.028l-6.629,2.027
			l-3.3,1.009l-9.052-2.229c-0.6-0.147-1.311-0.009-1.588,0.311c-0.275,0.317-0.015,0.695,0.582,0.841l7.523,1.852l-1.263,0.387
			l-7.479-0.576c-0.651-0.051-1.256,0.191-1.352,0.537c-0.092,0.347,0.357,0.669,1.011,0.719l4.468,0.346l-5.284,1.616
			c-0.573,0.175-0.769,0.562-0.438,0.867c0.326,0.304,1.055,0.408,1.627,0.233l5.212-1.593l-1.682,2.127
			c-0.258,0.325,0.027,0.695,0.638,0.832c0.607,0.135,1.308-0.016,1.561-0.338l2.896-3.666l1.35-0.412l-0.555,4.707
			c-0.046,0.352,0.457,0.652,1.117,0.673c0.654,0.022,1.224-0.244,1.266-0.594l0.65-5.545l3.281-1.004l6.639-2.03v4.073v2.026
			l-8.147,3.063c-0.54,0.202-0.666,0.599-0.286,0.885c0.38,0.286,1.126,0.355,1.662,0.151l6.771-2.545v0.775l-4.668,3.161
			c-0.406,0.275-0.318,0.674,0.198,0.891c0.523,0.215,1.271,0.169,1.679-0.107l2.791-1.888v3.242c0,0.351,0.533,0.635,1.192,0.635
			s1.194-0.284,1.194-0.635v-3.197l2.632,1.836c0.398,0.28,1.143,0.335,1.673,0.121c0.521-0.212,0.623-0.61,0.222-0.889
			l-4.526-3.162v-0.827l7.395,2.603c0.552,0.197,1.291,0.114,1.654-0.18c0.363-0.292,0.215-0.686-0.336-0.878l-8.713-3.065v-2.013
			v-4.073l6.637,2.03l3.282,1.004l0.648,5.545c0.042,0.35,0.611,0.616,1.266,0.594c0.66-0.021,1.165-0.321,1.118-0.673l-0.556-4.707
			l1.35,0.412l2.897,3.666c0.255,0.322,0.952,0.474,1.562,0.338c0.611-0.137,0.895-0.507,0.636-0.832l-1.68-2.127l5.21,1.593
			c0.571,0.175,1.302,0.071,1.628-0.233C1026.065,153.555,1025.868,153.168,1025.296,152.994z"/>
		<path fill="#FFFFFF" d="M741.529,297.448l-2.438-1.84l3.002,0.478c0.438,0.071,0.899-0.063,1.032-0.295
			c0.127-0.233-0.116-0.479-0.556-0.549l-5.026-0.801l-0.583-0.439l5.754,0.004c0.46,0.001,0.83-0.196,0.83-0.438
			c0-0.245-0.37-0.442-0.83-0.443l-6.925-0.003l-1.521-1.148l-3.061-2.308l5.288-0.246l2.633-0.122l4.474,2.811
			c0.295,0.187,0.821,0.21,1.168,0.052c0.35-0.157,0.396-0.436,0.098-0.62l-3.717-2.336l1.005-0.048l4.395,1.527
			c0.381,0.133,0.895,0.075,1.144-0.128c0.25-0.205,0.143-0.478-0.239-0.61l-2.625-0.913l4.217-0.196
			c0.457-0.021,0.792-0.233,0.753-0.477c-0.04-0.241-0.443-0.421-0.897-0.399l-4.155,0.191l2.226-1.077
			c0.344-0.164,0.368-0.442,0.057-0.623c-0.306-0.179-0.829-0.193-1.169-0.029l-3.838,1.857l-1.077,0.05l2.938-2.878
			c0.223-0.215,0.072-0.482-0.333-0.598c-0.401-0.117-0.905-0.037-1.123,0.177l-3.458,3.391l-2.617,0.121l-5.294,0.247l2.238-2.565
			l1.111-1.275l6.813-0.662c0.452-0.042,0.751-0.272,0.666-0.512c-0.081-0.238-0.513-0.398-0.962-0.354l-5.661,0.549l0.427-0.487
			l4.675-1.265c0.407-0.109,0.57-0.375,0.362-0.593c-0.208-0.215-0.704-0.304-1.113-0.192l-2.793,0.755l1.782-2.041
			c0.191-0.221,0.012-0.482-0.403-0.585c-0.418-0.103-0.909-0.008-1.101,0.214l-1.757,2.014l-0.648-1.566
			c-0.098-0.238-0.535-0.388-0.987-0.335c-0.446,0.052-0.729,0.286-0.63,0.523l1.115,2.696l-0.457,0.521l-3.227-2.788
			c-0.238-0.211-0.748-0.273-1.141-0.145c-0.389,0.127-0.509,0.397-0.272,0.605l3.805,3.284l-1.107,1.268l-2.239,2.564l-3.063-2.311
			l-1.515-1.143l2.641-3.592c0.166-0.227-0.045-0.482-0.471-0.569c-0.427-0.091-0.909,0.021-1.074,0.249l-2.237,3.05l-0.623-0.469
			l0.192-2.76c0.017-0.241-0.34-0.444-0.798-0.454c-0.459-0.011-0.843,0.18-0.857,0.424l-0.112,1.601l-2.405-1.813
			c-0.264-0.198-0.781-0.246-1.151-0.106c-0.378,0.141-0.465,0.414-0.202,0.613l2.439,1.84l-3.004-0.477
			c-0.438-0.07-0.899,0.063-1.033,0.295c-0.13,0.232,0.118,0.479,0.556,0.548l5.027,0.801l0.583,0.439l-5.756-0.004
			c-0.455-0.001-0.827,0.197-0.827,0.439c-0.002,0.244,0.368,0.442,0.827,0.442l6.926,0.005l1.521,1.147l3.058,2.308l-5.286,0.246
			l-2.633,0.121l-4.474-2.811c-0.295-0.186-0.819-0.208-1.17-0.051c-0.347,0.156-0.394,0.435-0.095,0.62l3.716,2.335l-1.006,0.048
			l-4.394-1.526c-0.382-0.134-0.896-0.075-1.144,0.129c-0.25,0.203-0.143,0.477,0.24,0.609l2.621,0.912l-4.213,0.195
			c-0.457,0.022-0.794,0.234-0.753,0.479c0.039,0.242,0.44,0.421,0.896,0.4l4.155-0.193l-2.225,1.077
			c-0.344,0.165-0.368,0.442-0.056,0.624c0.306,0.18,0.828,0.192,1.166,0.028l3.839-1.856l1.078-0.049l-2.938,2.876
			c-0.225,0.215-0.072,0.481,0.333,0.598c0.399,0.116,0.905,0.036,1.124-0.177l3.455-3.39l2.618-0.122l5.295-0.246l-2.239,2.565
			l-1.112,1.274l-6.813,0.662c-0.451,0.043-0.75,0.273-0.666,0.513c0.08,0.238,0.513,0.397,0.963,0.354l5.661-0.55l-0.427,0.488
			l-4.675,1.264c-0.409,0.11-0.572,0.375-0.364,0.593c0.209,0.216,0.706,0.303,1.113,0.193l2.795-0.755l-1.782,2.041
			c-0.191,0.221-0.012,0.481,0.402,0.585c0.415,0.103,0.909,0.006,1.101-0.215l1.757-2.013l0.649,1.565
			c0.097,0.239,0.534,0.389,0.987,0.336c0.444-0.053,0.727-0.287,0.629-0.525l-1.113-2.694l0.453-0.521l3.229,2.787
			c0.237,0.21,0.747,0.273,1.14,0.145c0.39-0.126,0.509-0.397,0.272-0.605L726.505,294l1.107-1.268l2.239-2.564l3.063,2.311
			l1.515,1.143l-2.641,3.593c-0.165,0.226,0.047,0.482,0.47,0.57c0.428,0.089,0.911-0.021,1.075-0.25l2.237-3.05l0.623,0.469
			l-0.19,2.759c-0.018,0.241,0.34,0.446,0.796,0.456c0.459,0.008,0.841-0.181,0.858-0.426l0.111-1.601l2.406,1.813
			c0.263,0.199,0.78,0.247,1.152,0.107C741.704,297.92,741.793,297.647,741.529,297.448z"/>
		<ellipse fill="#FFFFFF" cx="729.704" cy="407.291" rx="5.055" ry="2.688"/>
		<ellipse fill="#FFFFFF" cx="566.841" cy="457.686" rx="5.056" ry="2.688"/>
		<ellipse fill="#FFFFFF" cx="403.45" cy="449.825" rx="5.055" ry="2.689"/>
		<ellipse fill="#FFFFFF" cx="429.021" cy="491.643" rx="5.055" ry="2.688"/>
		<ellipse fill="#FFFFFF" cx="509.282" cy="546.572" rx="5.055" ry="2.689"/>
		<ellipse fill="#FFFFFF" cx="746.345" cy="497.875" rx="5.055" ry="2.688"/>
		<ellipse fill="#FFFFFF" cx="839.597" cy="447.506" rx="5.055" ry="2.688"/>
		<ellipse fill="#FFFFFF" cx="982.793" cy="471.625" rx="5.055" ry="2.688"/>
		<ellipse fill="#FFFFFF" cx="930.289" cy="476.702" rx="5.055" ry="2.688"/>
		<ellipse fill="#FFFFFF" cx="1044.846" cy="509.707" rx="5.055" ry="2.688"/>
		<ellipse fill="#FFFFFF" cx="763.225" cy="465.278" rx="5.055" ry="2.688"/>
		<ellipse fill="#FFFFFF" cx="891" cy="479.905" rx="5.055" ry="2.688"/>
		<ellipse fill="#FFFFFF" cx="333.635" cy="474.163" rx="5.055" ry="2.689"/>
		<ellipse fill="#FFFFFF" cx="258.868" cy="480.447" rx="8.154" ry="4.336"/>
		<ellipse fill="#FFFFFF" cx="177.775" cy="531.436" rx="10.113" ry="5.379"/>
		<ellipse fill="#FFFFFF" cx="172.72" cy="451.021" rx="5.055" ry="2.688"/>
		<ellipse fill="#FFFFFF" cx="961.315" cy="510.976" rx="5.055" ry="2.688"/>
		<path fill="#FFFFFF" d="M866.026,527.506c0,2.171-3.307,3.93-7.391,3.93c-4.079,0-7.388-1.759-7.388-3.93s3.309-3.932,7.388-3.932
			C862.72,523.575,866.026,525.335,866.026,527.506z"/>
		<ellipse fill="#FFFFFF" cx="287.532" cy="211.573" rx="10.113" ry="5.378"/>
		<ellipse fill="#FFFFFF" cx="387.94" cy="133.655" rx="5.056" ry="2.689"/>
		<ellipse fill="#FFFFFF" cx="576.859" cy="211.573" rx="5.056" ry="2.689"/>
		<ellipse fill="#FFFFFF" cx="711.791" cy="157.933" rx="5.055" ry="2.689"/>
		<ellipse fill="#FFFFFF" cx="808.174" cy="214.262" rx="5.055" ry="2.689"/>
		<ellipse fill="#FFFFFF" cx="903.809" cy="173.805" rx="5.057" ry="2.689"/>
		<path fill="#FFFFFF" d="M1059.033,294.779l-6.019-1.841l5.091-0.395c0.742-0.057,1.253-0.422,1.152-0.817
			c-0.111-0.396-0.795-0.671-1.541-0.612l-8.521,0.655l-1.438-0.439l8.572-2.11c0.681-0.166,0.977-0.596,0.662-0.958
			c-0.317-0.363-1.126-0.521-1.81-0.354l-10.31,2.538l-3.762-1.148l-7.552-2.309l7.552-2.311l3.762-1.15l10.31,2.54
			c0.684,0.168,1.492,0.009,1.808-0.354c0.316-0.361,0.021-0.792-0.66-0.958l-8.572-2.11l1.438-0.441l8.521,0.657
			c0.746,0.058,1.43-0.217,1.541-0.611c0.101-0.396-0.41-0.763-1.152-0.819l-5.091-0.394l6.019-1.843
			c0.654-0.198,0.876-0.64,0.501-0.987c-0.374-0.346-1.203-0.465-1.854-0.265l-5.938,1.814l1.914-2.423
			c0.291-0.371-0.028-0.792-0.729-0.947c-0.689-0.155-1.485,0.018-1.775,0.386l-3.3,4.176l-1.536,0.468l0.632-5.362
			c0.053-0.401-0.522-0.743-1.277-0.767c-0.745-0.025-1.39,0.278-1.438,0.677l-0.742,6.316l-3.74,1.145l-7.561,2.313v-4.642v-2.307
			l9.282-3.49c0.616-0.23,0.759-0.683,0.325-1.009c-0.433-0.324-1.284-0.403-1.893-0.172l-7.715,2.899v-0.883l5.317-3.601
			c0.462-0.313,0.361-0.769-0.227-1.017c-0.596-0.244-1.448-0.191-1.912,0.123l-3.179,2.15v-3.691c0-0.4-0.609-0.725-1.358-0.725
			c-0.75,0-1.359,0.324-1.359,0.725v3.642l-3-2.093c-0.456-0.318-1.302-0.381-1.905-0.136c-0.593,0.241-0.712,0.694-0.255,1.013
			l5.16,3.602v0.942l-8.425-2.963c-0.629-0.225-1.474-0.131-1.887,0.204c-0.413,0.332-0.243,0.78,0.381,1.001l9.931,3.491v2.293
			v4.642l-7.561-2.313l-3.74-1.145l-0.741-6.316c-0.049-0.398-0.693-0.702-1.439-0.677c-0.753,0.023-1.328,0.365-1.276,0.767
			l0.631,5.362l-1.535-0.468l-3.3-4.176c-0.289-0.368-1.086-0.541-1.775-0.386c-0.7,0.155-1.02,0.576-0.728,0.947l1.913,2.423
			l-5.938-1.814c-0.652-0.2-1.481-0.081-1.855,0.265c-0.374,0.348-0.152,0.789,0.502,0.987l6.019,1.843l-5.092,0.394
			c-0.742,0.057-1.253,0.423-1.15,0.819c0.109,0.395,0.796,0.669,1.54,0.611l8.521-0.657l1.438,0.441l-8.572,2.11
			c-0.681,0.166-0.977,0.597-0.659,0.958c0.314,0.362,1.123,0.521,1.806,0.354l10.312-2.54l3.762,1.15l7.551,2.311l-7.551,2.309
			l-3.762,1.148l-10.312-2.538c-0.683-0.168-1.491-0.01-1.81,0.354c-0.313,0.362-0.018,0.792,0.663,0.958l8.572,2.11l-1.438,0.439
			l-8.521-0.655c-0.744-0.059-1.431,0.217-1.54,0.612c-0.103,0.396,0.408,0.761,1.15,0.817l5.092,0.395l-6.019,1.841
			c-0.654,0.2-0.876,0.641-0.502,0.989c0.374,0.345,1.203,0.465,1.855,0.265l5.938-1.815l-1.913,2.425
			c-0.297,0.369,0.027,0.791,0.722,0.947c0.695,0.153,1.492-0.02,1.781-0.387l3.3-4.176l1.535-0.469l-0.631,5.363
			c-0.052,0.4,0.523,0.742,1.272,0.766c0.745,0.025,1.395-0.278,1.443-0.677l0.741-6.316l3.74-1.143l7.561-2.314v4.641v2.308
			l-9.282,3.491c-0.616,0.23-0.759,0.681-0.325,1.008c0.432,0.323,1.285,0.403,1.893,0.171l7.715-2.899v0.884l-5.318,3.601
			c-0.461,0.313-0.361,0.769,0.229,1.015c0.594,0.246,1.447,0.194,1.911-0.123l3.179-2.148v3.692c0,0.399,0.609,0.724,1.359,0.724
			c0.749,0,1.358-0.324,1.358-0.724v-3.643l3,2.093c0.456,0.318,1.302,0.38,1.905,0.136c0.593-0.243,0.711-0.696,0.255-1.013
			l-5.16-3.603v-0.942l8.425,2.964c0.631,0.224,1.474,0.131,1.886-0.205c0.414-0.332,0.244-0.781-0.379-0.999l-9.932-3.491v-2.295
			v-4.641l7.561,2.314l3.74,1.143l0.742,6.316c0.048,0.398,0.696,0.702,1.442,0.677c0.75-0.023,1.325-0.365,1.272-0.766
			l-0.632-5.363l1.536,0.469l3.3,4.176c0.29,0.367,1.086,0.54,1.781,0.387c0.694-0.156,1.019-0.578,0.723-0.947l-1.914-2.425
			l5.938,1.815c0.651,0.2,1.48,0.08,1.854-0.265C1059.909,295.419,1059.688,294.979,1059.033,294.779z"/>
		<path fill="#FFFFFF" d="M1105.521,370.78l-2.438-1.839l3.002,0.479c0.438,0.068,0.898-0.065,1.031-0.296
			c0.129-0.232-0.115-0.48-0.555-0.55l-5.026-0.799l-0.582-0.441l5.754,0.005c0.458,0,0.828-0.196,0.828-0.439
			c0-0.245-0.37-0.442-0.828-0.442l-6.924-0.004l-1.522-1.148l-3.062-2.307l5.29-0.246l2.634-0.123l4.472,2.811
			c0.296,0.187,0.821,0.211,1.168,0.053c0.35-0.156,0.396-0.436,0.098-0.62l-3.718-2.336l1.007-0.047l4.394,1.524
			c0.382,0.134,0.895,0.075,1.145-0.126c0.25-0.206,0.143-0.479-0.239-0.611l-2.625-0.912l4.217-0.196
			c0.457-0.021,0.791-0.234,0.752-0.477c-0.038-0.242-0.443-0.422-0.897-0.399l-4.156,0.19l2.228-1.077
			c0.342-0.164,0.367-0.442,0.056-0.623c-0.306-0.179-0.83-0.192-1.169-0.029l-3.838,1.859l-1.076,0.047l2.937-2.876
			c0.223-0.215,0.072-0.481-0.334-0.598c-0.401-0.117-0.904-0.038-1.122,0.177l-3.458,3.391l-2.618,0.121l-5.294,0.245l2.239-2.563
			l1.112-1.277l6.813-0.662c0.453-0.041,0.75-0.272,0.667-0.51c-0.082-0.241-0.513-0.4-0.964-0.354l-5.66,0.55l0.427-0.488
			l4.675-1.265c0.407-0.11,0.57-0.374,0.363-0.593c-0.209-0.216-0.706-0.304-1.114-0.192l-2.794,0.756l1.783-2.042
			c0.19-0.222,0.012-0.482-0.404-0.585s-0.909-0.008-1.1,0.214l-1.758,2.013l-0.646-1.565c-0.1-0.238-0.537-0.389-0.989-0.336
			c-0.445,0.053-0.728,0.287-0.629,0.524l1.114,2.695l-0.455,0.521l-3.228-2.788c-0.238-0.211-0.749-0.273-1.14-0.145
			c-0.389,0.127-0.51,0.396-0.271,0.605l3.803,3.284l-1.107,1.268l-2.24,2.563l-3.063-2.31l-1.515-1.143l2.641-3.592
			c0.165-0.228-0.044-0.482-0.471-0.57c-0.427-0.09-0.909,0.021-1.074,0.25l-2.238,3.049l-0.621-0.468l0.191-2.759
			c0.016-0.243-0.341-0.446-0.798-0.457c-0.459-0.01-0.842,0.183-0.856,0.425l-0.113,1.602l-2.404-1.813
			c-0.264-0.2-0.781-0.247-1.152-0.106c-0.377,0.141-0.465,0.415-0.203,0.613l2.44,1.84l-3.003-0.476
			c-0.438-0.072-0.901,0.062-1.033,0.295c-0.13,0.231,0.116,0.479,0.554,0.548l5.028,0.799l0.583,0.44l-5.755-0.005
			c-0.457,0-0.828,0.198-0.828,0.441c-0.002,0.243,0.368,0.441,0.828,0.441l6.924,0.005l1.523,1.147l3.056,2.309l-5.285,0.245
			l-2.634,0.122l-4.474-2.812c-0.295-0.186-0.818-0.209-1.168-0.053c-0.349,0.157-0.395,0.437-0.095,0.622l3.716,2.335l-1.007,0.048
			l-4.394-1.526c-0.382-0.135-0.896-0.074-1.145,0.128c-0.248,0.203-0.142,0.477,0.241,0.611l2.622,0.912l-4.214,0.195
			c-0.457,0.02-0.793,0.232-0.753,0.477c0.039,0.243,0.44,0.421,0.896,0.401l4.156-0.194l-2.226,1.079
			c-0.343,0.163-0.368,0.441-0.056,0.622c0.306,0.18,0.829,0.193,1.166,0.03l3.84-1.857l1.076-0.049l-2.937,2.876
			c-0.225,0.215-0.072,0.481,0.333,0.598c0.399,0.115,0.906,0.036,1.125-0.177l3.455-3.39l2.617-0.122l5.296-0.247l-2.239,2.566
			l-1.113,1.273l-6.812,0.663c-0.452,0.042-0.751,0.272-0.667,0.513c0.083,0.238,0.513,0.396,0.963,0.352l5.662-0.548l-0.427,0.488
			l-4.677,1.263c-0.408,0.112-0.571,0.377-0.363,0.593c0.21,0.217,0.707,0.305,1.114,0.192l2.794-0.753l-1.781,2.04
			c-0.192,0.221-0.013,0.482,0.402,0.585s0.908,0.008,1.099-0.214l1.759-2.012l0.647,1.563c0.098,0.239,0.536,0.391,0.988,0.337
			c0.445-0.053,0.727-0.287,0.63-0.524l-1.114-2.694l0.454-0.521l3.228,2.786c0.237,0.211,0.748,0.274,1.14,0.146
			c0.391-0.127,0.512-0.398,0.273-0.606l-3.804-3.283l1.105-1.269l2.241-2.563l3.063,2.311l1.516,1.143l-2.641,3.592
			c-0.166,0.227,0.046,0.483,0.47,0.571c0.426,0.089,0.908-0.021,1.075-0.25l2.236-3.05l0.623,0.469l-0.19,2.758
			c-0.017,0.242,0.34,0.446,0.797,0.456c0.459,0.009,0.841-0.18,0.857-0.425l0.112-1.601l2.405,1.813
			c0.264,0.199,0.78,0.245,1.153,0.106C1105.695,371.254,1105.784,370.981,1105.521,370.78z"/>
		<ellipse fill="#FFFFFF" cx="480.642" cy="370.126" rx="5.055" ry="2.688"/>
		<ellipse fill="#FFFFFF" cx="709.758" cy="507.22" rx="5.056" ry="2.689"/>
		<ellipse fill="#FFFFFF" cx="619.066" cy="538.956" rx="5.055" ry="2.688"/>
		<ellipse fill="#FFFFFF" cx="356.539" cy="604.963" rx="5.056" ry="2.689"/>
		<ellipse fill="#FFFFFF" cx="814.768" cy="603.695" rx="5.055" ry="2.688"/>
		<ellipse fill="#FFFFFF" cx="993.764" cy="577.038" rx="5.055" ry="2.688"/>
		<ellipse fill="#FFFFFF" cx="633.386" cy="161.945" rx="5.055" ry="2.689"/>
		<ellipse fill="#FFFFFF" cx="480.642" cy="249.534" rx="5.055" ry="2.689"/>
		<ellipse fill="#FFFFFF" cx="46.279" cy="248.264" rx="5.055" ry="2.689"/>
		<ellipse fill="#FFFFFF" cx="313.579" cy="13.426" rx="5.055" ry="2.689"/>
		<ellipse fill="#FFFFFF" cx="1103.549" cy="0.732" rx="5.056" ry="2.688"/>
		<path fill="#FFFFFF" d="M672.882,463.151l-2.438-1.841l3.001,0.479c0.439,0.069,0.901-0.064,1.033-0.296
			c0.128-0.232-0.116-0.479-0.555-0.549l-5.026-0.8l-0.583-0.441l5.754,0.005c0.46,0,0.83-0.196,0.83-0.438
			c0-0.246-0.37-0.442-0.83-0.443l-6.925-0.003l-1.521-1.148l-3.061-2.308l5.289-0.245l2.633-0.123l4.473,2.81
			c0.296,0.187,0.82,0.211,1.169,0.053c0.348-0.156,0.396-0.436,0.098-0.62l-3.718-2.335l1.006-0.047l4.395,1.524
			c0.382,0.134,0.894,0.076,1.144-0.127c0.25-0.206,0.143-0.478-0.239-0.61l-2.625-0.913l4.217-0.196
			c0.456-0.021,0.792-0.233,0.752-0.477c-0.039-0.241-0.441-0.422-0.896-0.398l-4.155,0.189l2.226-1.076
			c0.342-0.165,0.368-0.443,0.056-0.624c-0.306-0.178-0.829-0.192-1.167-0.028l-3.84,1.858l-1.076,0.049l2.938-2.878
			c0.222-0.215,0.07-0.48-0.333-0.598c-0.401-0.117-0.905-0.037-1.122,0.177l-3.459,3.392l-2.617,0.12l-5.295,0.247l2.238-2.564
			l1.113-1.277l6.812-0.662c0.453-0.041,0.752-0.271,0.666-0.51c-0.081-0.24-0.511-0.398-0.961-0.354l-5.661,0.55l0.426-0.488
			l4.677-1.265c0.405-0.109,0.57-0.374,0.361-0.593c-0.209-0.215-0.705-0.303-1.113-0.192l-2.794,0.756l1.783-2.042
			c0.191-0.222,0.011-0.481-0.404-0.585c-0.417-0.103-0.908-0.008-1.1,0.215l-1.758,2.014l-0.647-1.567
			c-0.098-0.238-0.536-0.388-0.987-0.335c-0.447,0.052-0.728,0.286-0.631,0.524l1.114,2.695l-0.455,0.521l-3.227-2.788
			c-0.238-0.211-0.748-0.272-1.141-0.145c-0.389,0.127-0.51,0.396-0.272,0.605l3.804,3.285l-1.107,1.267l-2.239,2.564l-3.063-2.311
			l-1.516-1.143l2.643-3.591c0.164-0.229-0.045-0.483-0.473-0.57c-0.426-0.091-0.908,0.02-1.074,0.249l-2.236,3.05l-0.622-0.469
			l0.19-2.758c0.015-0.244-0.34-0.446-0.797-0.456c-0.458-0.011-0.843,0.181-0.857,0.423l-0.113,1.602l-2.404-1.813
			c-0.264-0.199-0.78-0.246-1.152-0.106c-0.377,0.141-0.466,0.415-0.202,0.613l2.439,1.84l-3.003-0.476
			c-0.439-0.072-0.901,0.063-1.033,0.295c-0.131,0.231,0.117,0.479,0.556,0.548l5.027,0.8l0.582,0.439l-5.755-0.005
			c-0.456,0-0.826,0.199-0.826,0.441c-0.004,0.243,0.367,0.441,0.826,0.441l6.925,0.005l1.522,1.148l3.057,2.308l-5.286,0.246
			l-2.633,0.121l-4.473-2.812c-0.296-0.186-0.82-0.208-1.17-0.052c-0.347,0.157-0.395,0.436-0.096,0.621l3.717,2.336l-1.006,0.048
			l-4.395-1.527c-0.382-0.135-0.895-0.074-1.144,0.129c-0.25,0.203-0.143,0.476,0.239,0.61l2.624,0.912l-4.216,0.195
			c-0.456,0.021-0.792,0.232-0.752,0.478c0.04,0.242,0.439,0.42,0.897,0.4l4.154-0.193l-2.225,1.079
			c-0.343,0.163-0.369,0.44-0.057,0.622c0.307,0.18,0.831,0.192,1.168,0.029l3.839-1.856l1.076-0.05l-2.936,2.876
			c-0.224,0.216-0.072,0.481,0.333,0.598c0.398,0.116,0.905,0.036,1.124-0.177l3.455-3.39l2.618-0.122l5.295-0.246l-2.239,2.565
			l-1.113,1.275l-6.812,0.661c-0.451,0.042-0.75,0.272-0.666,0.514c0.081,0.237,0.514,0.396,0.961,0.352l5.663-0.548l-0.427,0.487
			l-4.675,1.263c-0.409,0.112-0.572,0.377-0.364,0.593c0.209,0.217,0.705,0.305,1.113,0.193l2.795-0.754l-1.782,2.041
			c-0.191,0.221-0.013,0.482,0.402,0.585c0.416,0.102,0.909,0.008,1.101-0.214l1.757-2.013l0.648,1.564
			c0.098,0.238,0.535,0.39,0.988,0.336c0.444-0.053,0.726-0.286,0.629-0.524l-1.114-2.694l0.455-0.521l3.229,2.787
			c0.237,0.21,0.746,0.273,1.139,0.145c0.389-0.127,0.51-0.397,0.272-0.605l-3.804-3.284l1.107-1.268l2.239-2.564l3.063,2.311
			l1.516,1.144l-2.64,3.592c-0.166,0.227,0.046,0.482,0.47,0.57c0.427,0.09,0.909-0.021,1.074-0.25l2.237-3.049l0.623,0.468
			l-0.191,2.759c-0.017,0.241,0.34,0.446,0.796,0.456c0.461,0.008,0.843-0.18,0.859-0.425l0.111-1.602l2.404,1.813
			c0.264,0.199,0.782,0.246,1.154,0.107C673.056,463.624,673.145,463.351,672.882,463.151z"/>
		<path fill="#FFFFFF" d="M346.942,528.44l-2.438-1.84l3.002,0.479c0.438,0.069,0.9-0.064,1.032-0.295
			c0.128-0.233-0.116-0.48-0.555-0.549l-5.027-0.8l-0.583-0.441l5.755,0.005c0.459,0,0.83-0.197,0.83-0.438
			c0-0.246-0.371-0.442-0.83-0.444l-6.924-0.002l-1.522-1.149l-3.06-2.308l5.288-0.245l2.634-0.123l4.473,2.811
			c0.295,0.187,0.82,0.211,1.167,0.052c0.35-0.155,0.397-0.435,0.099-0.619l-3.718-2.336l1.006-0.046l4.394,1.524
			c0.382,0.133,0.895,0.075,1.144-0.127c0.25-0.206,0.143-0.479-0.241-0.611l-2.624-0.912l4.215-0.196
			c0.458-0.021,0.792-0.234,0.753-0.478c-0.04-0.241-0.443-0.422-0.897-0.398l-4.155,0.19l2.225-1.077
			c0.343-0.165,0.369-0.442,0.056-0.623c-0.305-0.179-0.83-0.192-1.167-0.028l-3.839,1.857l-1.076,0.049l2.936-2.877
			c0.224-0.215,0.072-0.481-0.333-0.598c-0.401-0.117-0.905-0.038-1.122,0.177l-3.458,3.391l-2.618,0.121l-5.295,0.246l2.24-2.563
			l1.112-1.277l6.812-0.662c0.453-0.042,0.751-0.272,0.667-0.51c-0.081-0.24-0.512-0.399-0.962-0.355l-5.661,0.551l0.426-0.488
			l4.675-1.265c0.408-0.11,0.571-0.375,0.363-0.593c-0.209-0.215-0.706-0.304-1.114-0.193l-2.794,0.757l1.783-2.042
			c0.191-0.223,0.012-0.482-0.404-0.586c-0.417-0.103-0.909-0.007-1.1,0.215l-1.758,2.014l-0.647-1.567
			c-0.098-0.237-0.536-0.388-0.988-0.334c-0.446,0.052-0.728,0.285-0.629,0.523l1.114,2.695l-0.455,0.521l-3.228-2.789
			c-0.238-0.211-0.748-0.271-1.14-0.144c-0.389,0.127-0.51,0.396-0.272,0.604l3.803,3.285l-1.106,1.268l-2.24,2.563l-3.063-2.31
			l-1.516-1.144l2.641-3.591c0.166-0.228-0.044-0.483-0.471-0.569c-0.426-0.092-0.909,0.02-1.075,0.249l-2.237,3.049l-0.623-0.469
			l0.191-2.758c0.017-0.243-0.34-0.446-0.796-0.456c-0.46-0.011-0.842,0.181-0.858,0.424l-0.112,1.602l-2.404-1.813
			c-0.263-0.199-0.781-0.247-1.151-0.106c-0.377,0.14-0.466,0.415-0.203,0.613l2.44,1.84l-3.005-0.477
			c-0.438-0.071-0.899,0.063-1.032,0.296c-0.131,0.231,0.116,0.478,0.555,0.548l5.027,0.8l0.583,0.439l-5.755-0.005
			c-0.456,0-0.827,0.198-0.827,0.441c-0.002,0.242,0.369,0.441,0.827,0.441l6.925,0.005l1.522,1.147l3.058,2.308l-5.286,0.247
			l-2.634,0.12l-4.473-2.812c-0.295-0.186-0.82-0.207-1.169-0.051c-0.347,0.157-0.394,0.436-0.096,0.621l3.717,2.335l-1.007,0.048
			l-4.394-1.527c-0.382-0.134-0.895-0.074-1.144,0.13c-0.25,0.202-0.143,0.476,0.24,0.609l2.622,0.912l-4.214,0.195
			c-0.458,0.021-0.792,0.233-0.753,0.479c0.04,0.241,0.44,0.42,0.897,0.4l4.156-0.194l-2.226,1.079
			c-0.342,0.164-0.368,0.44-0.056,0.622c0.306,0.18,0.83,0.193,1.167,0.03l3.839-1.857l1.076-0.05l-2.937,2.876
			c-0.224,0.216-0.072,0.482,0.333,0.598c0.398,0.116,0.905,0.037,1.124-0.177l3.456-3.39l2.618-0.122l5.295-0.246l-2.24,2.566
			l-1.112,1.274l-6.812,0.661c-0.453,0.043-0.751,0.273-0.667,0.514c0.082,0.238,0.512,0.396,0.962,0.353l5.661-0.549l-0.426,0.488
			l-4.675,1.262c-0.408,0.112-0.571,0.377-0.363,0.593c0.209,0.218,0.706,0.306,1.114,0.194l2.794-0.754l-1.783,2.041
			c-0.191,0.221-0.011,0.481,0.404,0.584c0.415,0.103,0.909,0.008,1.1-0.214l1.758-2.012l0.647,1.564
			c0.098,0.238,0.536,0.389,0.988,0.335c0.445-0.052,0.727-0.286,0.629-0.524l-1.114-2.694l0.455-0.521l3.228,2.786
			c0.238,0.211,0.748,0.274,1.14,0.146c0.389-0.128,0.511-0.398,0.273-0.606l-3.804-3.284l1.106-1.268l2.24-2.563l3.063,2.311
			l1.515,1.143l-2.641,3.592c-0.165,0.227,0.047,0.483,0.471,0.571c0.427,0.089,0.91-0.022,1.075-0.25l2.237-3.05l0.622,0.469
			l-0.191,2.758c-0.016,0.241,0.34,0.446,0.797,0.456c0.459,0.009,0.842-0.18,0.858-0.425l0.112-1.601l2.405,1.813
			c0.263,0.198,0.78,0.246,1.153,0.107C347.116,528.914,347.205,528.64,346.942,528.44z"/>
		<path fill="#FFFFFF" d="M1061.728,493.996l-2.438-1.839l3.003,0.479c0.438,0.068,0.898-0.064,1.031-0.295
			c0.128-0.233-0.116-0.48-0.555-0.55l-5.026-0.799l-0.583-0.441l5.754,0.005c0.461,0,0.83-0.197,0.83-0.439
			c0-0.245-0.369-0.441-0.83-0.443l-6.924-0.002l-1.522-1.15l-3.059-2.307l5.287-0.245l2.634-0.123l4.472,2.811
			c0.297,0.187,0.821,0.211,1.168,0.053c0.351-0.156,0.396-0.436,0.099-0.62l-3.719-2.336l1.008-0.048l4.393,1.525
			c0.382,0.134,0.895,0.075,1.145-0.126c0.25-0.206,0.143-0.479-0.239-0.611l-2.625-0.912l4.217-0.196
			c0.457-0.021,0.791-0.234,0.752-0.477c-0.038-0.242-0.443-0.422-0.896-0.399l-4.156,0.19l2.227-1.077
			c0.343-0.165,0.368-0.442,0.056-0.623c-0.306-0.18-0.83-0.192-1.169-0.029l-3.837,1.858l-1.077,0.048l2.938-2.876
			c0.222-0.215,0.071-0.481-0.334-0.598c-0.401-0.117-0.904-0.038-1.122,0.177l-3.459,3.391l-2.615,0.121l-5.297,0.246l2.241-2.563
			l1.11-1.277l6.813-0.662c0.453-0.042,0.752-0.272,0.667-0.51c-0.082-0.242-0.513-0.4-0.963-0.355l-5.66,0.551l0.426-0.488
			l4.676-1.265c0.406-0.11,0.569-0.375,0.363-0.593c-0.21-0.216-0.706-0.304-1.115-0.193l-2.793,0.757l1.783-2.042
			c0.19-0.222,0.011-0.483-0.403-0.586c-0.418-0.103-0.91-0.007-1.101,0.215l-1.757,2.013l-0.648-1.566
			c-0.097-0.237-0.537-0.388-0.988-0.335c-0.446,0.053-0.728,0.286-0.63,0.524l1.115,2.695l-0.455,0.521l-3.228-2.788
			c-0.238-0.211-0.748-0.272-1.141-0.144c-0.389,0.127-0.51,0.396-0.271,0.604l3.803,3.285l-1.107,1.268l-2.24,2.563l-3.062-2.31
			l-1.515-1.144l2.64-3.591c0.167-0.228-0.044-0.483-0.471-0.57c-0.426-0.091-0.908,0.021-1.074,0.25l-2.237,3.049l-0.622-0.468
			l0.191-2.76c0.016-0.242-0.34-0.445-0.798-0.456c-0.459-0.01-0.842,0.182-0.856,0.425l-0.112,1.602l-2.405-1.813
			c-0.264-0.199-0.781-0.247-1.152-0.106c-0.377,0.14-0.465,0.415-0.201,0.613l2.438,1.84l-3.003-0.477
			c-0.438-0.071-0.899,0.063-1.033,0.296c-0.13,0.231,0.117,0.478,0.554,0.548l5.029,0.799l0.582,0.44l-5.753-0.005
			c-0.458,0-0.829,0.198-0.829,0.441c-0.003,0.242,0.368,0.441,0.829,0.441l6.923,0.005l1.522,1.147l3.059,2.308l-5.287,0.246
			l-2.635,0.121l-4.471-2.812c-0.298-0.186-0.821-0.208-1.171-0.052c-0.347,0.158-0.394,0.437-0.095,0.621l3.716,2.335l-1.007,0.049
			l-4.394-1.527c-0.382-0.134-0.895-0.074-1.143,0.13c-0.249,0.202-0.143,0.476,0.24,0.609l2.621,0.913l-4.213,0.195
			c-0.458,0.02-0.794,0.232-0.753,0.477c0.039,0.242,0.44,0.421,0.896,0.401l4.156-0.194l-2.227,1.078
			c-0.343,0.165-0.368,0.442-0.056,0.623c0.306,0.18,0.829,0.193,1.167,0.029l3.839-1.856l1.077-0.05l-2.937,2.876
			c-0.225,0.216-0.072,0.482,0.333,0.598c0.398,0.116,0.905,0.037,1.124-0.177l3.456-3.39l2.617-0.122l5.295-0.246l-2.239,2.566
			l-1.112,1.273l-6.813,0.662c-0.451,0.043-0.75,0.273-0.667,0.514c0.083,0.238,0.513,0.396,0.964,0.352l5.661-0.548l-0.427,0.488
			l-4.676,1.262c-0.408,0.112-0.571,0.377-0.364,0.593c0.211,0.218,0.707,0.306,1.114,0.194l2.795-0.754l-1.782,2.041
			c-0.191,0.22-0.012,0.481,0.402,0.584c0.415,0.103,0.909,0.008,1.099-0.215l1.759-2.011l0.647,1.563
			c0.099,0.238,0.536,0.39,0.988,0.337c0.445-0.053,0.727-0.287,0.63-0.525l-1.114-2.694l0.454-0.521l3.229,2.786
			c0.235,0.211,0.748,0.274,1.138,0.145c0.392-0.127,0.512-0.397,0.273-0.605l-3.804-3.284l1.108-1.269l2.238-2.563l3.063,2.311
			l1.516,1.143l-2.641,3.591c-0.165,0.228,0.047,0.484,0.472,0.572c0.427,0.089,0.909-0.022,1.073-0.25l2.237-3.05l0.622,0.469
			l-0.19,2.758c-0.017,0.241,0.34,0.446,0.797,0.456c0.459,0.009,0.841-0.179,0.857-0.426l0.112-1.6l2.406,1.813
			c0.263,0.198,0.779,0.245,1.152,0.107C1061.901,494.47,1061.99,494.197,1061.728,493.996z"/>
	</g>
</g>
<g id="DESIGNED_BY_FREEPIK" display="none">
	<g display="inline">
		<g>
			<g id="XMLID_197_">
				<g id="XMLID_216_">
					<path id="XMLID_224_" fill="#1D262D" d="M447.943,465.465c-0.434,0.443-0.805,0.932-1.109,1.453l-0.465-0.241
						c-0.066-0.297-0.35-0.502-0.658-0.466c-0.332,0.039-0.568,0.339-0.529,0.67s0.338,0.567,0.67,0.528
						c0.064-0.007,0.127-0.025,0.184-0.052l0.451,0.234c-0.252,0.554-0.434,1.139-0.539,1.743l0.746,0.132
						c0.23-1.306,0.85-2.507,1.793-3.473L447.943,465.465z"/>
					<path id="XMLID_223_" fill="#1D262D" d="M453.43,463.164c-0.17,0-0.34,0.006-0.508,0.017l-0.074-0.626
						c0.188-0.149,0.295-0.389,0.266-0.645c-0.047-0.393-0.402-0.674-0.795-0.628c-0.395,0.046-0.676,0.402-0.629,0.796
						c0.031,0.254,0.189,0.461,0.404,0.563l0.074,0.624c-0.715,0.116-1.402,0.332-2.061,0.646l0.328,0.685
						c0.934-0.447,1.941-0.674,2.994-0.674c0.498,0,0.994,0.053,1.477,0.158l0.16-0.741
						C454.531,463.222,453.98,463.164,453.43,463.164z"/>
					<path id="XMLID_222_" fill="#1D262D" d="M460.033,465.71c0.33-0.04,0.566-0.341,0.525-0.672s-0.342-0.566-0.672-0.525
						c-0.311,0.038-0.535,0.304-0.531,0.608l-0.416,0.363c-0.418-0.43-0.889-0.813-1.406-1.14l-0.404,0.642
						c1.135,0.715,2.02,1.727,2.563,2.925l0.691-0.313c-0.252-0.554-0.568-1.071-0.943-1.545l0.402-0.351
						C459.904,465.715,459.967,465.719,460.033,465.71z"/>
					<path id="XMLID_221_" fill="#1D262D" d="M452.883,473.372c-0.385,0.023-0.775,0.035-1.156,0.035
						c-0.881,0-1.734-0.061-2.479-0.18c-0.391-0.062-0.846-0.154-1.271-0.292c1.047,1.861,3.07,3.125,5.389,3.125
						c2.855,0,5.264-1.916,5.949-4.503c-0.682,0.449-1.504,0.825-2.457,1.122C455.678,473.047,454.303,473.287,452.883,473.372z"/>
					<path id="XMLID_217_" fill="#1D262D" d="M453.43,464.68c-3.352,0-6.078,2.666-6.078,5.943c0,0.425,0.045,0.849,0.137,1.261
						c0.674,0.483,2.705,0.891,5.348,0.731c2.879-0.174,5.297-0.958,6.672-2.159c-0.006-0.194-0.021-0.39-0.045-0.581
						C459.082,466.914,456.488,464.68,453.43,464.68z M451.271,471.195c-1.02,0-1.85-0.83-1.85-1.85c0-1.021,0.83-1.851,1.85-1.851
						s1.85,0.83,1.85,1.851C453.121,470.365,452.291,471.195,451.271,471.195z M456.008,470.287c-0.75,0-1.359-0.61-1.359-1.36
						s0.609-1.36,1.359-1.36s1.361,0.61,1.361,1.36S456.758,470.287,456.008,470.287z"/>
				</g>
				<path id="XMLID_214_" fill="#1D262D" d="M469.434,466.547c-0.295-0.116-0.805-0.31-1.383-0.238
					c-0.551,0.069-0.844,0.341-0.844,1.007v0.866h2.229v1.717h-2.229v5.455h-1.932v-5.455h-1.338v-1.717h1.338v-0.889
					c0-1.68,0.896-2.782,2.568-2.782c0.643,0,1.158,0.121,1.59,0.308V466.547z"/>
				<path id="XMLID_212_" fill="#1D262D" d="M474.137,469.878c-0.178-0.029-0.357-0.046-0.525-0.046c-0.896,0-1.51,0.548-1.51,1.613
					v3.908h-1.934v-7.172h1.873v0.784c0.451-0.673,1.141-0.977,2.021-0.977c0.414,0,0.848,0.128,1.094,0.337L474.137,469.878z"/>
				<path id="XMLID_209_" fill="#1D262D" d="M481.805,471.757c0,0.222-0.016,0.488-0.037,0.651h-5.086
					c0.207,1.036,0.934,1.487,1.844,1.487c0.621,0,1.295-0.252,1.813-0.688l1.133,1.243c-0.814,0.748-1.85,1.089-3.057,1.089
					c-2.197,0-3.723-1.496-3.723-3.753c0-2.258,1.48-3.797,3.627-3.797C480.383,467.99,481.797,469.522,481.805,471.757z
					 M476.689,471.091h3.176c-0.178-0.918-0.732-1.437-1.563-1.437C477.393,469.655,476.859,470.203,476.689,471.091z"/>
				<path id="XMLID_206_" fill="#1D262D" d="M489.457,471.757c0,0.222-0.016,0.488-0.037,0.651h-5.084
					c0.207,1.036,0.932,1.487,1.842,1.487c0.623,0,1.297-0.252,1.814-0.688l1.133,1.243c-0.814,0.748-1.852,1.089-3.059,1.089
					c-2.197,0-3.723-1.496-3.723-3.753c0-2.258,1.48-3.797,3.627-3.797C488.035,467.99,489.449,469.522,489.457,471.757z
					 M484.344,471.091h3.174c-0.178-0.918-0.732-1.437-1.561-1.437C485.047,469.655,484.514,470.203,484.344,471.091z"/>
				<path id="XMLID_203_" fill="#1D262D" d="M497.803,471.764c0,2.154-1.494,3.775-3.471,3.775c-0.963,0-1.645-0.378-2.109-0.933
					v3.708h-1.926v-10.133h1.889v0.792c0.467-0.585,1.154-0.984,2.139-0.984C496.309,467.99,497.803,469.611,497.803,471.764z
					 M492.125,471.764c0,1.133,0.748,1.977,1.844,1.977c1.141,0,1.85-0.881,1.85-1.977c0-1.095-0.709-1.976-1.85-1.976
					C492.873,469.789,492.125,470.632,492.125,471.764z"/>
				<path id="XMLID_200_" fill="#1D262D" d="M500.906,465.835c0,0.696-0.541,1.229-1.236,1.229s-1.229-0.533-1.229-1.229
					c0-0.695,0.533-1.243,1.229-1.243S500.906,465.14,500.906,465.835z M500.646,475.354h-1.932v-7.172h1.932V475.354z"/>
				<path id="XMLID_198_" fill="#1D262D" d="M503.871,470.736l2.701-2.554h2.369l-3.479,3.375l3.5,3.797h-2.375l-2.717-2.901v2.901
					h-1.932v-10.658h1.932V470.736z"/>
			</g>
			<g>
				<path fill="#1D262D" d="M372.251,475.29v-1.055c-0.527,0.718-1.391,1.23-2.387,1.23c-1.846,0-3.149-1.406-3.149-3.706
					c0-2.256,1.289-3.721,3.149-3.721c0.952,0,1.816,0.469,2.387,1.245v-3.765h1.099v9.771H372.251z M372.251,473.371v-3.208
					c-0.395-0.615-1.245-1.143-2.124-1.143c-1.42,0-2.27,1.172-2.27,2.739s0.85,2.725,2.27,2.725
					C371.006,474.484,371.856,473.986,372.251,473.371z"/>
				<path fill="#1D262D" d="M374.771,471.745c0-2.051,1.465-3.706,3.486-3.706c2.139,0,3.398,1.67,3.398,3.794v0.278h-5.727
					c0.088,1.333,1.025,2.446,2.549,2.446c0.806,0,1.626-0.322,2.182-0.894l0.527,0.718c-0.703,0.703-1.655,1.084-2.812,1.084
					C376.279,475.465,374.771,473.957,374.771,471.745z M378.242,468.947c-1.509,0-2.256,1.274-2.314,2.358h4.644
					C380.557,470.25,379.854,468.947,378.242,468.947z"/>
				<path fill="#1D262D" d="M382.446,474.352l0.571-0.791c0.469,0.542,1.362,1.011,2.329,1.011c1.084,0,1.67-0.513,1.67-1.216
					c0-1.714-4.38-0.659-4.38-3.281c0-1.099,0.952-2.036,2.636-2.036c1.202,0,2.051,0.454,2.623,1.025l-0.513,0.762
					c-0.424-0.513-1.201-0.894-2.109-0.894c-0.966,0-1.567,0.483-1.567,1.113c0,1.553,4.379,0.527,4.379,3.281
					c0,1.187-0.952,2.139-2.783,2.139C384.145,475.465,383.164,475.114,382.446,474.352z"/>
				<path fill="#1D262D" d="M389.316,466.471c0-0.41,0.337-0.747,0.732-0.747c0.41,0,0.747,0.337,0.747,0.747
					s-0.337,0.732-0.747,0.732C389.653,467.204,389.316,466.881,389.316,466.471z M389.506,475.29v-7.075h1.099v7.075H389.506z"/>
				<path fill="#1D262D" d="M392.421,477.106l0.556-0.82c0.586,0.703,1.289,0.967,2.3,0.967c1.172,0,2.271-0.571,2.271-2.124v-1.011
					c-0.513,0.718-1.377,1.26-2.373,1.26c-1.846,0-3.149-1.377-3.149-3.662c0-2.271,1.289-3.677,3.149-3.677
					c0.952,0,1.802,0.469,2.373,1.245v-1.069h1.099v6.87c0,2.344-1.641,3.076-3.369,3.076
					C394.076,478.161,393.255,477.925,392.421,477.106z M397.547,473.253v-3.091c-0.381-0.615-1.23-1.143-2.109-1.143
					c-1.421,0-2.27,1.128-2.27,2.695c0,1.553,0.849,2.695,2.27,2.695C396.317,474.411,397.167,473.869,397.547,473.253z"/>
				<path fill="#1D262D" d="M405.252,475.29v-4.629c0-1.245-0.63-1.641-1.582-1.641c-0.864,0-1.685,0.527-2.094,1.099v5.171h-1.099
					v-7.075h1.099v1.025c0.498-0.586,1.464-1.201,2.519-1.201c1.479,0,2.256,0.747,2.256,2.285v4.966H405.252z"/>
				<path fill="#1D262D" d="M407.771,471.745c0-2.051,1.465-3.706,3.486-3.706c2.139,0,3.398,1.67,3.398,3.794v0.278h-5.727
					c0.088,1.333,1.025,2.446,2.548,2.446c0.806,0,1.626-0.322,2.183-0.894l0.527,0.718c-0.703,0.703-1.655,1.084-2.813,1.084
					C409.28,475.465,407.771,473.957,407.771,471.745z M411.243,468.947c-1.509,0-2.256,1.274-2.314,2.358h4.643
					C413.557,470.25,412.854,468.947,411.243,468.947z"/>
				<path fill="#1D262D" d="M421.189,475.29v-1.055c-0.527,0.718-1.392,1.23-2.388,1.23c-1.845,0-3.149-1.406-3.149-3.706
					c0-2.256,1.289-3.721,3.149-3.721c0.952,0,1.817,0.469,2.388,1.245v-3.765h1.098v9.771H421.189z M421.189,473.371v-3.208
					c-0.396-0.615-1.245-1.143-2.124-1.143c-1.421,0-2.271,1.172-2.271,2.739s0.85,2.725,2.271,2.725
					C419.944,474.484,420.793,473.986,421.189,473.371z"/>
				<path fill="#1D262D" d="M427.531,475.29v-9.771h1.099v3.765c0.571-0.776,1.421-1.245,2.388-1.245
					c1.845,0,3.149,1.465,3.149,3.721c0,2.3-1.304,3.706-3.149,3.706c-0.996,0-1.86-0.513-2.388-1.23v1.055H427.531z
					 M430.739,474.484c1.436,0,2.285-1.157,2.285-2.725s-0.85-2.739-2.285-2.739c-0.864,0-1.729,0.527-2.109,1.143v3.208
					C429.01,473.986,429.875,474.484,430.739,474.484z"/>
				<path fill="#1D262D" d="M435.367,477.062c0.161,0.073,0.425,0.117,0.601,0.117c0.483,0,0.806-0.161,1.055-0.747l0.469-1.069
					l-2.959-7.148h1.187l2.358,5.801l2.345-5.801h1.199l-3.544,8.511c-0.425,1.024-1.143,1.421-2.08,1.436
					c-0.234,0-0.601-0.044-0.806-0.104L435.367,477.062z"/>
			</g>
		</g>
	</g>
</g>
</svg>
